<svg xmlns="http://www.w3.org/2000/svg" xmlns:xlink="http://www.w3.org/1999/xlink" viewBox="0 0 83 68.79"><defs><style>.cls-1{fill:none;clip-rule:evenodd;}.cls-2{fill:#231f20;}.cls-2,.cls-3,.cls-5,.cls-6{fill-rule:evenodd;}.cls-3{fill:url(#linear-gradient);}.cls-4{clip-path:url(#clip-path);}.cls-5{fill:url(#radial-gradient);}.cls-6{fill:url(#radial-gradient-2);}</style><linearGradient id="linear-gradient" x1="19.24" y1="27.84" x2="55.63" y2="27.84" gradientUnits="userSpaceOnUse"><stop offset="0" stop-color="#d79041"/><stop offset="0.1" stop-color="#fbaf33"/><stop offset="0.3" stop-color="#ffc132"/><stop offset="0.45" stop-color="#ffd72e"/><stop offset="0.65" stop-color="#fff229"/><stop offset="0.73" stop-color="#fbe82c"/><stop offset="0.88" stop-color="#f0cc33"/><stop offset="1" stop-color="#e6b03b"/></linearGradient><clipPath id="clip-path"><path class="cls-1" d="M37.43,9.64a18.2,18.2,0,1,1-18.19,18.2A18.2,18.2,0,0,1,37.43,9.64Z"/></clipPath><radialGradient id="radial-gradient" cx="46.1" cy="18.02" r="18.05" gradientUnits="userSpaceOnUse"><stop offset="0" stop-color="#fff" stop-opacity="0.7"/><stop offset="0.16" stop-color="#fff" stop-opacity="0.53"/><stop offset="0.36" stop-color="#fff" stop-opacity="0.34"/><stop offset="0.55" stop-color="#fff" stop-opacity="0.2"/><stop offset="0.73" stop-color="#fff" stop-opacity="0.09"/><stop offset="0.88" stop-color="#fff" stop-opacity="0.02"/><stop offset="1" stop-color="#fff" stop-opacity="0"/></radialGradient><radialGradient id="radial-gradient-2" cx="37.43" cy="27.84" r="18.2" gradientUnits="userSpaceOnUse"><stop offset="0.9" stop-color="#fff" stop-opacity="0"/><stop offset="1" stop-color="#fff" stop-opacity="0.3"/></radialGradient></defs><title>beeline</title><g id="Layer_2" data-name="Layer 2"><g id="Warstwa_1" data-name="Warstwa 1"><path class="cls-2" d="M32.81,56.37c-2.72,0-4.26,1.56-4.64,4.69l-.31,3.21a2.16,2.16,0,0,1-1.93,2.26.41.41,0,0,0-.46.46v1.29a.4.4,0,0,0,.46.44c2.59,0,4-1.52,4.32-4.58l.3-2.82a3.54,3.54,0,0,1,.57-2,2.25,2.25,0,0,1,1.82-.59H35v9.47a.39.39,0,0,0,.44.44h1.49a.4.4,0,0,0,.44-.44V56.83a.4.4,0,0,0-.44-.46Z"/><path class="cls-2" d="M16,63.45V56.83a.4.4,0,0,0-.46-.46H14a.4.4,0,0,0-.44.46v7.39c0,3,1.44,4.57,4.32,4.57a6.16,6.16,0,0,0,4-1.54l.25,1.08a.51.51,0,0,0,.39.26H23.6c.3,0,.46-.13.46-.39V56.83c0-.31-.18-.46-.52-.46H22.08a.4.4,0,0,0-.46.46v8a4.23,4.23,0,0,1-3.34,1.61c-1.52,0-2.26-1-2.26-3Z"/><path class="cls-2" d="M11.78,63.07c0-3.78-2-5.68-6.18-5.68H2.52V53.67H9.65c.31,0,.44-.18.47-.52V51.79c0-.33-.16-.51-.47-.51H.46c-.31,0-.46.18-.46.51V63.45c0,3.47,1.64,5.21,4.9,5.21h.44q6.44,0,6.44-5.59ZM5.67,59.7c2.37,0,3.55,1.13,3.55,3.37S8,66.33,5.67,66.35H4.9c-1.59,0-2.38-.9-2.38-2.64v-4Z"/><path class="cls-2" d="M73,61.27H67.45V56.83a.41.41,0,0,0-.46-.46H65.47c-.28,0-.41.15-.38.46V68.15c0,.28.1.44.38.44H67a.41.41,0,0,0,.46-.44v-4.7H73v4.7c0,.28.18.44.49.44H75a.4.4,0,0,0,.46-.44V56.83a.4.4,0,0,0-.46-.46H73.51c-.31,0-.49.15-.49.46v4.44Z"/><path class="cls-2" d="M61.8,56.37H60.31c-.33,0-.51.15-.51.46v8a4.2,4.2,0,0,1-3.34,1.61c-1.49,0-2.26-1-2.26-3V56.83c0-.31-.15-.46-.44-.46H52.28c-.34,0-.52.15-.52.46v7.39c0,3,1.44,4.57,4.31,4.57a5.76,5.76,0,0,0,4-1.54l.23,1.08a.51.51,0,0,0,.41.26H61.8c.28,0,.44-.13.44-.39V56.83a.4.4,0,0,0-.44-.46Z"/><path class="cls-2" d="M62.18,51.79c0-.33-.15-.51-.45-.51H52.28a.46.46,0,0,0-.52.51v1.36a.47.47,0,0,0,.52.52h9.45c.3,0,.45-.18.45-.52V51.79Z"/><path class="cls-2" d="M46.45,58.68a2.61,2.61,0,0,1,.35,1.54v.28l-2.69.13c-3,.2-4.54,1.54-4.54,4.05,0,2.72,1.54,4.11,4.62,4.11a5.74,5.74,0,0,0,3.13-.9l.21.44a.7.7,0,0,0,.43.26h.93c.23,0,.35-.13.35-.39v-8c0-2.85-1.56-4.29-4.75-4.29a9.42,9.42,0,0,0-3.64.64.67.67,0,0,0-.29.44v1.36a.69.69,0,0,0,.21.38,2.91,2.91,0,0,0,.39,0,9.16,9.16,0,0,1,3.33-.56,3.23,3.23,0,0,1,2,.44Zm-2.26,7.85c-1.39,0-2.06-.62-2.06-1.85s.62-1.85,1.93-2l2.69-.25,0,3.28a5.17,5.17,0,0,1-2.61.77Z"/><polygon class="cls-2" points="83 56.44 82.95 56.37 82.44 56.37 81.66 58.16 80.9 56.37 80.38 56.37 80.38 59.22 80.82 59.22 80.82 57.21 81.46 58.8 81.84 58.8 82.57 57.21 82.49 59.14 82.57 59.22 82.95 59.22 83 59.14 83 56.44 83 56.44"/><polygon class="cls-2" points="80 56.44 79.92 56.37 78.04 56.37 78.04 56.83 78.76 56.83 78.76 59.14 78.84 59.22 79.2 59.22 79.2 56.83 79.92 56.83 80 56.75 80 56.44 80 56.44"/><path class="cls-3" d="M37.43,9.64a18.2,18.2,0,1,1-18.19,18.2A18.2,18.2,0,0,1,37.43,9.64Z"/><path class="cls-2" d="M23.82,15.77a164,164,0,0,1,27.23,0,18.18,18.18,0,0,0-27.23,0Z"/><path class="cls-2" d="M51.23,39.7a185.45,185.45,0,0,1-27.59,0,18.2,18.2,0,0,0,27.59,0Z"/><path class="cls-2" d="M19.83,23.22C31.67,23,43.21,23,55,23.22a18.33,18.33,0,0,1,.14,8.65c-12,.35-23.77.26-35.49,0a18.5,18.5,0,0,1-.45-4,18,18,0,0,1,.59-4.62Z"/><g class="cls-4"><path class="cls-5" d="M64.17,18A18.07,18.07,0,1,1,46.1,0,18,18,0,0,1,64.17,18Z"/></g><path class="cls-6" d="M37.43,9.64a18.2,18.2,0,1,1-18.19,18.2A18.2,18.2,0,0,1,37.43,9.64Z"/></g></g></svg>