<svg xmlns="http://www.w3.org/2000/svg" xmlns:xlink="http://www.w3.org/1999/xlink" viewBox="0 0 105.79 25.33"><defs><style>.cls-1,.cls-2{fill:none;}.cls-1{clip-rule:evenodd;}.cls-3{clip-path:url(#clip-path);}.cls-4{clip-path:url(#clip-path-2);}.cls-5{fill:#e81;}</style><clipPath id="clip-path" transform="translate(-0.1)"><polygon class="cls-1" points="0 25.33 106 25.33 106 0 0 0 0 25.33 0 25.33"/></clipPath><clipPath id="clip-path-2" transform="translate(-0.1)"><polygon class="cls-2" points="0 25.33 106 25.33 106 0 0 0 0 25.33 0 25.33"/></clipPath></defs><title>dns</title><g id="Layer_2" data-name="Layer 2"><g id="Layer_1-2" data-name="Layer 1"><g class="cls-3"><g class="cls-4"><path class="cls-5" d="M99.74,10a10.68,10.68,0,0,0-1.94-.22H80.24a2,2,0,0,1-2-1.27,1.79,1.79,0,0,1,.62-2.16,3.27,3.27,0,0,1,1.55-.47c6.74,0,13.47,0,20.21,0a5.61,5.61,0,0,0,1.09-.06,2.9,2.9,0,0,0,2.4-3.21,3,3,0,0,0-3-2.56H80.21A8.79,8.79,0,0,0,79,.1a7.84,7.84,0,0,0-6.8,8.43,7.93,7.93,0,0,0,8,7h3.81c4.59,0,9.17,0,13.75,0a2,2,0,0,1,2,1.2,2,2,0,0,1-2,2.72H74.94a3,3,0,0,0-2.81,2.82,2.93,2.93,0,0,0,3,3c3.83,0,7.66,0,11.49,0,3.64,0,7.28,0,10.92,0A13.91,13.91,0,0,0,99,25.22a7.82,7.82,0,0,0,6.85-7A7.73,7.73,0,0,0,99.74,10Z" transform="translate(-0.1)"/><path class="cls-5" d="M21,0H.1V25.3l.44,0H20.86a13.5,13.5,0,0,0,2-.15A12.71,12.71,0,0,0,33.55,9.89,13,13,0,0,0,21,0ZM22.2,19.33a6.5,6.5,0,0,1-1.32.14c-4.75,0-9.5,0-14.25,0l-.48,0V5.84H20.76a7,7,0,0,1,7,6,6.84,6.84,0,0,1-5.57,7.51Z" transform="translate(-0.1)"/><path class="cls-5" d="M69.82.56V0h-6V16.66a2.21,2.21,0,0,1-.32-.19Q52.24,8.6,41,.72A3.83,3.83,0,0,0,39.22,0a2.92,2.92,0,0,0-3.16,3.14q0,9.74,0,19.48v2.63h6V8.64l.34.22,8.94,6.26c4.54,3.19,9.08,6.4,13.63,9.59a3,3,0,0,0,3.21.27,2.79,2.79,0,0,0,1.62-2.64q0-10.89,0-21.78Z" transform="translate(-0.1)"/></g></g></g></g></svg>