<svg xmlns="http://www.w3.org/2000/svg" xmlns:xlink="http://www.w3.org/1999/xlink" viewBox="0 0 112.86 29.4"><defs><style>.cls-1,.cls-2{fill:none;}.cls-1{clip-rule:evenodd;}.cls-3{clip-path:url(#clip-path);}.cls-4{clip-path:url(#clip-path-2);}.cls-5{fill:#c81639;}.cls-6{clip-path:url(#clip-path-3);}.cls-7{clip-path:url(#clip-path-4);}.cls-8{fill:#fff;}</style><clipPath id="clip-path" transform="translate(-0.07 0)"><polygon class="cls-1" points="0 29.4 113 29.4 113 0 0 0 0 29.4 0 29.4"/></clipPath><clipPath id="clip-path-2" transform="translate(-0.07 0)"><polygon class="cls-2" points="0 29.4 113 29.4 113 0 0 0 0 29.4 0 29.4"/></clipPath><clipPath id="clip-path-3" transform="translate(-0.07 0)"><path class="cls-2" d="M10.77.68C16.27-.45,37.26.16,46.68.22c21,.13,55,1.68,59.16,2.34,5.21.83,7.42,2.95,7,8a28,28,0,0,1-2.73,10.1c-2.06,4.17-4.93,4.72-11.65,5.56-8,1-24.8,1.83-46,2.5-22.15.7-36,.83-42.61.62S-.46,25,.13,18.1A33.93,33.93,0,0,1,2.65,7.32C4.35,3.6,6.46,1.57,10.77.68Z"/></clipPath><clipPath id="clip-path-4" transform="translate(-0.07 0)"><polygon class="cls-1" points="0 29.4 113 29.4 113 0 0 0 0 29.4 0 29.4"/></clipPath></defs><title>eldorado</title><g id="Layer_2" data-name="Layer 2"><g id="Layer_1-2" data-name="Layer 1"><g class="cls-3"><g class="cls-4"><path class="cls-5" d="M10.77.68C16.27-.45,37.26.16,46.68.22c21,.13,55,1.68,59.16,2.34,5.21.83,7.42,2.95,7,8a28,28,0,0,1-2.73,10.1c-2.06,4.17-4.93,4.72-11.65,5.56-8,1-24.8,1.83-46,2.5-22.15.7-36,.83-42.61.62S-.46,25,.13,18.1A33.93,33.93,0,0,1,2.65,7.32C4.35,3.6,6.46,1.57,10.77.68Z" transform="translate(-0.07 0)"/><g class="cls-6"><polyline class="cls-5" points="13.17 29.4 13.17 29.38 11.71 29.38 11.71 29.36 10.7 29.36 10.7 29.34 9.88 29.34 9.88 29.31 9.41 29.31 9.41 29.29 9.1 29.29 9.1 29.27 8.85 29.27 8.85 29.25 8.62 29.25 8.62 29.23 8.44 29.23 8.44 29.2 8.29 29.2 8.29 29.18 8.11 29.18 8.11 29.16 7.97 29.16 7.97 29.14 7.86 29.14 7.86 29.11 7.72 29.11 7.72 29.09 7.59 29.09 7.59 29.07 7.48 29.07 7.48 29.05 7.39 29.05 7.39 29.02 7.27 29.02 7.27 29 7.18 29 7.18 28.98 7.07 28.98 7.07 28.96 6.98 28.96 6.98 28.94 6.89 28.94 6.89 28.91 6.8 28.91 6.8 28.89 6.73 28.89 6.73 28.87 6.64 28.87 6.64 28.85 6.58 28.85 6.58 28.82 6.49 28.82 6.49 28.8 6.42 28.8 6.42 28.78 6.35 28.78 6.35 28.76 6.26 28.76 6.26 28.74 6.19 28.74 6.19 28.71 6.13 28.71 6.13 28.69 6.06 28.69 6.06 28.67 5.99 28.67 5.99 28.65 5.92 28.65 5.92 28.62 5.88 28.62 5.88 28.6 5.81 28.6 5.81 28.58 5.74 28.58 5.74 28.56 5.7 28.56 5.7 28.54 5.63 28.54 5.63 28.51 5.58 28.51 5.58 28.49 5.52 28.49 5.52 28.47 5.45 28.47 5.45 28.45 5.4 28.45 5.4 28.42 5.36 28.42 5.36 28.4 5.31 28.4 5.31 28.38 5.25 28.38 5.25 28.36 5.2 28.36 5.2 28.34 5.16 28.34 5.16 28.31 5.11 28.31 5.11 28.29 5.04 28.29 5.04 28.27 5 28.27 5 28.25 4.95 28.25 4.95 28.22 4.91 28.22 4.91 28.2 4.86 28.2 4.86 28.18 4.82 28.18 4.82 28.16 4.77 28.16 4.77 28.14 4.73 28.14 4.73 28.11 4.68 28.11 4.68 28.09 4.64 28.09 4.64 28.07 4.62 28.07 4.62 28.05 4.57 28.05 4.57 28.02 4.53 28.02 4.53 28 4.48 28 4.48 27.98 4.44 27.98 4.44 27.96 4.41 27.96 4.41 27.93 4.37 27.93 4.37 27.91 4.32 27.91 4.32 27.89 4.28 27.89 4.28 27.87 4.26 27.87 4.26 27.85 4.21 27.85 4.21 27.82 4.17 27.82 4.17 27.8 4.14 27.8 4.14 27.78 4.1 27.78 4.1 27.76 4.05 27.76 4.05 27.73 4.03 27.73 4.03 27.71 3.99 27.71 3.99 27.69 3.96 27.69 3.96 27.67 3.92 27.67 3.92 27.65 3.9 27.65 3.9 27.62 3.85 27.62 3.85 27.6 3.83 27.6 3.83 27.58 3.78 27.58 3.78 27.56 3.76 27.56 3.76 27.54 3.71 27.54 3.71 27.51 3.69 27.51 3.69 27.49 3.67 27.49 3.67 27.47 3.63 27.47 3.63 27.45 3.6 27.45 3.6 27.42 3.58 27.42 3.58 27.4 3.54 27.4 3.54 27.38 3.51 27.38 3.51 27.36 3.49 27.36 3.49 27.34 3.44 27.34 3.44 27.31 3.42 27.31 3.42 27.29 3.4 27.29 3.4 27.27 3.35 27.27 3.35 27.25 3.33 27.25 3.33 27.22 3.31 27.22 3.31 27.2 3.27 27.2 3.27 27.18 3.24 27.18 3.24 27.16 3.22 27.16 3.22 27.13 3.2 27.13 3.2 27.11 3.17 27.11 3.17 27.09 3.13 27.09 3.13 27.07 3.11 27.07 3.11 27.05 3.08 27.05 3.08 27.02 3.06 27.02 3.06 27 3.04 27 3.04 26.98 3.02 26.98 3.02 26.96 2.97 26.96 2.97 26.93 2.95 26.93 2.95 26.91 2.93 26.91 2.93 26.89 2.9 26.89 2.9 26.87 2.88 26.87 2.88 26.84 2.86 26.84 2.86 26.82 2.84 26.82 2.84 26.8 2.81 26.8 2.81 26.78 2.79 26.78 2.79 26.76 2.77 26.76 2.77 26.73 2.75 26.73 2.75 26.71 2.73 26.71 2.73 26.69 2.7 26.69 2.7 26.67 2.66 26.67 2.66 26.64 2.63 26.64 2.63 26.62 2.61 26.62 2.61 26.6 2.59 26.6 2.59 26.58 2.57 26.58 2.57 26.56 2.54 26.56 2.54 26.53 2.52 26.53 2.52 26.49 2.5 26.49 2.5 26.47 2.48 26.47 2.48 26.45 2.46 26.45 2.46 26.42 2.43 26.42 2.43 26.4 2.41 26.4 2.41 26.38 2.39 26.38 2.39 26.36 2.36 26.36 2.36 26.33 2.34 26.33 2.34 26.31 2.32 26.31 2.32 26.29 2.3 26.29 2.3 26.27 2.27 26.27 2.27 26.25 2.25 26.25 2.25 26.22 2.23 26.22 2.23 26.18 2.21 26.18 2.21 26.16 2.18 26.16 2.18 26.13 2.16 26.13 2.16 26.11 2.14 26.11 2.14 26.07 2.12 26.07 2.12 26.05 2.09 26.05 2.09 26.02 2.07 26.02 2.07 26 2.05 26 2.05 25.98 2.03 25.98 2.03 25.93 2 25.93 2 25.91 1.98 25.91 1.98 25.89 1.96 25.89 1.96 25.87 1.94 25.87 1.94 25.82 1.91 25.82 1.91 25.8 1.89 25.8 1.89 25.78 1.87 25.78 1.87 25.73 1.85 25.73 1.85 25.71 1.82 25.71 1.82 25.69 1.8 25.69 1.8 25.64 1.78 25.64 1.78 25.62 1.76 25.62 1.76 25.58 1.73 25.58 1.73 25.56 1.71 25.56 1.71 25.53 1.69 25.53 1.69 25.49 1.67 25.49 1.67 25.47 1.64 25.47 1.64 25.42 1.62 25.42 1.62 25.4 1.6 25.4 1.6 25.36 1.58 25.36 1.58 25.33 1.55 25.33 1.55 25.29 1.53 25.29 1.53 25.27 1.51 25.27 1.51 25.22 1.49 25.22 1.49 25.18 1.46 25.18 1.46 25.16 1.44 25.16 1.44 25.11 1.42 25.11 1.42 25.09 1.4 25.09 1.4 25.04 1.37 25.04 1.37 25 1.35 25 1.35 24.98 1.33 24.98 1.33 24.93 1.31 24.93 1.31 24.89 1.28 24.89 1.28 24.84 1.26 24.84 1.26 24.82 1.24 24.82 1.24 24.78 1.22 24.78 1.22 24.73 1.19 24.73 1.19 24.69 1.17 24.69 1.17 24.64 1.15 24.64 1.15 24.6 1.13 24.6 1.13 24.55 1.1 24.55 1.1 24.51 1.08 24.51 1.08 24.47 1.06 24.47 1.06 24.42 1.04 24.42 1.04 24.38 1.01 24.38 1.01 24.33 0.99 24.33 0.99 24.29 0.97 24.29 0.97 24.24 0.95 24.24 0.95 24.2 0.92 24.2 0.92 24.16 0.9 24.16 0.9 24.09 0.88 24.09 0.88 24.04 0.86 24.04 0.86 24 0.83 24 0.83 23.93 0.81 23.93 0.81 23.89 0.79 23.89 0.79 23.84 0.77 23.84 0.77 23.78 0.74 23.78 0.74 23.73 0.72 23.73 0.72 23.67 0.7 23.67 0.7 23.6 0.68 23.6 0.68 23.55 0.65 23.55 0.65 23.49 0.63 23.49 0.63 23.42 0.61 23.42 0.61 23.35 0.59 23.35 0.59 23.29 0.56 23.29 0.56 23.24 0.54 23.24 0.54 23.15 0.52 23.15 0.52 23.09 0.5 23.09 0.5 23.02 0.47 23.02 0.47 22.93 0.45 22.93 0.45 22.86 0.43 22.86 0.43 22.8 0.41 22.8 0.41 22.71 0.38 22.71 0.38 22.62 0.36 22.62 0.36 22.53 0.34 22.53 0.34 22.44 0.32 22.44 0.32 22.35 0.29 22.35 0.29 22.27 0.27 22.27 0.27 22.15 0.25 22.15 0.25 22.04 0.23 22.04 0.23 21.93 0.2 21.93 0.2 21.8 0.18 21.8 0.18 21.69 0.16 21.69 0.16 21.53 0.14 21.53 0.14 21.4 0.11 21.4 0.11 21.24 0.09 21.24 0.09 21.06 0.07 21.06 0.07 20.82 0.04 20.82 0.04 20.6 0.02 20.6 0.02 20.24 0 20.24 0 18.64 0.02 18.64 0.02 18.26 0.04 18.26 0.04 18 0.07 18 0.07 17.73 0.09 17.73 0.09 17.53 0.11 17.53 0.11 17.31 0.14 17.31 0.14 17.11 0.16 17.11 0.16 16.91 0.18 16.91 0.18 16.68 0.2 16.68 0.2 16.48 0.23 16.48 0.23 16.33 0.25 16.33 0.25 16.17 0.27 16.17 0.27 15.99 0.29 15.99 0.29 15.84 0.32 15.84 0.32 15.66 0.34 15.66 0.34 15.51 0.36 15.51 0.36 15.35 0.38 15.35 0.38 15.17 0.41 15.17 0.41 15.02 0.43 15.02 0.43 14.88 0.45 14.88 0.45 14.75 0.47 14.75 0.47 14.64 0.49 14.64 0.49 14.5 0.52 14.5 0.52 14.37 0.54 14.37 0.54 14.24 0.56 14.24 0.56 14.1 0.58 14.1 0.58 13.97 0.61 13.97 0.61 13.86 0.63 13.86 0.63 13.73 0.65 13.73 0.65 13.59 0.68 13.59 0.68 13.48 0.7 13.48 0.7 13.37 0.72 13.37 0.72 13.28 0.74 13.28 0.74 13.17 0.77 13.17 0.77 13.06 0.79 13.06 0.79 12.95 0.81 12.95 0.81 12.84 0.83 12.84 0.83 12.75 0.86 12.75 0.86 12.64 0.88 12.64 0.88 12.53 0.9 12.53 0.9 12.41 0.92 12.41 0.92 12.32 0.95 12.32 0.95 12.21 0.97 12.21 0.97 12.13 0.99 12.13 0.99 12.04 1.01 12.04 1.01 11.95 1.04 11.95 1.04 11.86 1.06 11.86 1.06 11.77 1.08 11.77 1.08 11.68 1.1 11.68 1.1 11.59 1.13 11.59 1.13 11.5 1.15 11.5 1.15 11.41 1.17 11.41 1.17 11.32 1.19 11.32 1.19 11.23 1.22 11.23 1.22 11.15 1.24 11.15 1.24 11.06 1.26 11.06 1.26 10.97 1.28 10.97 1.28 10.88 1.31 10.88 1.31 10.81 1.33 10.81 1.33 10.72 1.35 10.72 1.35 10.66 1.37 10.66 1.37 10.59 1.4 10.59 1.4 10.5 1.42 10.5 1.42 10.44 1.44 10.44 1.44 10.37 1.46 10.37 1.46 10.28 1.49 10.28 1.49 10.21 1.51 10.21 1.51 10.15 1.53 10.15 1.53 10.06 1.55 10.06 1.55 9.99 1.58 9.99 1.58 9.92 1.6 9.92 1.6 9.83 1.62 9.83 1.62 9.77 1.64 9.77 1.64 9.68 1.67 9.68 1.67 9.61 1.69 9.61 1.69 9.54 1.71 9.54 1.71 9.48 1.73 9.48 1.73 9.41 1.76 9.41 1.76 9.37 1.78 9.37 1.78 9.3 1.8 9.3 1.8 9.23 1.82 9.23 1.82 9.17 1.85 9.17 1.85 9.1 1.87 9.1 1.87 9.03 1.89 9.03 1.89 8.99 1.91 8.99 1.91 8.92 1.94 8.92 1.94 8.86 1.96 8.86 1.96 8.79 1.98 8.79 1.98 8.72 2 8.72 2 8.66 2.03 8.66 2.03 8.61 2.05 8.61 2.05 8.54 2.07 8.54 2.07 8.48 2.09 8.48 2.09 8.41 2.12 8.41 2.12 8.37 2.14 8.37 2.14 8.3 2.16 8.3 2.16 8.26 2.18 8.26 2.18 8.19 2.21 8.19 2.21 8.14 2.23 8.14 2.23 8.08 2.25 8.08 2.25 8.03 2.27 8.03 2.27 7.97 2.3 7.97 2.3 7.92 2.32 7.92 2.32 7.86 2.34 7.86 2.34 7.81 2.36 7.81 2.36 7.74 2.39 7.74 2.39 7.7 2.41 7.7 2.41 7.63 2.43 7.63 2.43 7.59 2.45 7.59 2.45 7.54 2.48 7.54 2.48 7.48 2.5 7.48 2.5 7.43 2.52 7.43 2.52 7.39 2.54 7.39 2.54 7.34 2.57 7.34 2.57 7.28 2.59 7.28 2.59 7.23 2.61 7.23 2.61 7.19 2.63 7.19 2.63 7.14 2.66 7.14 2.66 7.1 2.68 7.1 2.68 7.05 2.7 7.05 2.7 7.01 2.73 7.01 2.73 6.94 2.75 6.94 2.75 6.9 2.77 6.9 2.77 6.85 2.79 6.85 2.79 6.81 2.81 6.81 2.81 6.76 2.84 6.76 2.84 6.72 2.86 6.72 2.86 6.68 2.88 6.68 2.88 6.63 2.9 6.63 2.9 6.59 2.93 6.59 2.93 6.54 2.95 6.54 2.95 6.5 2.97 6.5 2.97 6.45 3 6.45 3 6.41 3.02 6.41 3.02 6.37 3.04 6.37 3.04 6.32 3.06 6.32 3.06 6.28 3.08 6.28 3.08 6.25 3.11 6.25 3.11 6.21 3.13 6.21 3.13 6.17 3.15 6.17 3.15 6.12 3.17 6.12 3.17 6.08 3.2 6.08 3.2 6.03 3.22 6.03 3.22 5.99 3.24 5.99 3.24 5.94 3.27 5.94 3.27 5.92 3.29 5.92 3.29 5.88 3.31 5.88 3.31 5.83 3.33 5.83 3.33 5.79 3.35 5.79 3.35 5.76 3.38 5.76 3.38 5.72 3.4 5.72 3.4 5.68 3.42 5.68 3.42 5.63 3.44 5.63 3.44 5.61 3.47 5.61 3.47 5.57 3.49 5.57 3.49 5.52 3.51 5.52 3.51 5.48 3.54 5.48 3.54 5.45 3.56 5.45 3.56 5.41 3.58 5.41 3.58 5.36 3.6 5.36 3.6 5.34 3.63 5.34 3.63 5.3 3.65 5.3 3.65 5.28 3.67 5.28 3.67 5.23 3.69 5.23 3.69 5.21 3.71 5.21 3.71 5.16 3.74 5.16 3.74 5.14 3.76 5.14 3.76 5.1 3.78 5.1 3.78 5.05 3.81 5.05 3.81 5.03 3.83 5.03 3.83 4.99 3.85 4.99 3.85 4.96 3.87 4.96 3.87 4.92 3.9 4.92 3.9 4.9 3.92 4.9 3.92 4.85 3.94 4.85 3.94 4.83 3.96 4.83 3.96 4.79 3.99 4.79 3.99 4.76 4.01 4.76 4.01 4.72 4.03 4.72 4.03 4.7 4.05 4.7 4.05 4.67 4.08 4.67 4.08 4.63 4.1 4.63 4.1 4.61 4.12 4.61 4.12 4.59 4.14 4.59 4.14 4.54 4.17 4.54 4.17 4.52 4.19 4.52 4.19 4.47 4.21 4.47 4.21 4.45 4.23 4.45 4.23 4.43 4.26 4.43 4.26 4.39 4.28 4.39 4.28 4.36 4.3 4.36 4.3 4.34 4.32 4.34 4.32 4.3 4.35 4.3 4.35 4.28 4.37 4.28 4.37 4.25 4.39 4.25 4.39 4.23 4.41 4.23 4.41 4.19 4.44 4.19 4.44 4.16 4.46 4.16 4.46 4.14 4.48 4.14 4.48 4.12 4.5 4.12 4.5 4.1 4.53 4.1 4.53 4.05 4.55 4.05 4.55 4.03 4.57 4.03 4.57 4.01 4.59 4.01 4.59 3.99 4.62 3.99 4.62 3.96 4.64 3.96 4.64 3.92 4.66 3.92 4.66 3.9 4.68 3.9 4.68 3.88 4.71 3.88 4.71 3.85 4.73 3.85 4.73 3.81 4.75 3.81 4.75 3.79 4.77 3.79 4.77 3.76 4.8 3.76 4.8 3.74 4.82 3.74 4.82 3.72 4.84 3.72 4.84 3.7 4.86 3.7 4.86 3.67 4.89 3.67 4.89 3.65 4.91 3.65 4.91 3.63 4.93 3.63 4.93 3.61 4.95 3.61 4.95 3.59 4.98 3.59 4.98 3.56 5 3.56 5 3.54 5.02 3.54 5.02 3.52 5.04 3.52 5.04 3.5 5.07 3.5 5.07 3.48 5.09 3.48 5.09 3.43 5.11 3.43 5.11 3.41 5.13 3.41 5.13 3.38 5.16 3.38 5.16 3.36 5.18 3.36 5.18 3.34 5.2 3.34 5.2 3.32 5.22 3.32 5.22 3.3 5.25 3.3 5.25 3.27 5.29 3.27 5.29 3.25 5.31 3.25 5.31 3.23 5.34 3.23 5.34 3.21 5.36 3.21 5.36 3.19 5.38 3.19 5.38 3.16 5.4 3.16 5.4 3.14 5.43 3.14 5.43 3.12 5.45 3.12 5.45 3.1 5.47 3.1 5.47 3.07 5.49 3.07 5.49 3.05 5.52 3.05 5.52 3.03 5.56 3.03 5.56 3.01 5.58 3.01 5.58 2.98 5.61 2.98 5.61 2.96 5.63 2.96 5.63 2.94 5.65 2.94 5.65 2.92 5.67 2.92 5.67 2.9 5.7 2.9 5.7 2.87 5.74 2.87 5.74 2.85 5.76 2.85 5.76 2.83 5.79 2.83 5.79 2.81 5.81 2.81 5.81 2.79 5.86 2.79 5.86 2.76 5.88 2.76 5.88 2.74 5.9 2.74 5.9 2.72 5.92 2.72 5.92 2.7 5.97 2.7 5.97 2.67 5.99 2.67 5.99 2.65 6.01 2.65 6.01 2.63 6.04 2.63 6.04 2.61 6.08 2.61 6.08 2.58 6.1 2.58 6.1 2.56 6.13 2.56 6.13 2.54 6.17 2.54 6.17 2.52 6.19 2.52 6.19 2.5 6.21 2.5 6.21 2.47 6.26 2.47 6.26 2.45 6.28 2.45 6.28 2.43 6.33 2.43 6.33 2.41 6.35 2.41 6.35 2.38 6.39 2.38 6.39 2.36 6.42 2.36 6.42 2.34 6.46 2.34 6.46 2.32 6.49 2.32 6.49 2.3 6.53 2.3 6.53 2.27 6.55 2.27 6.55 2.25 6.6 2.25 6.6 2.23 6.62 2.23 6.62 2.21 6.64 2.21 6.64 2.19 6.69 2.19 6.69 2.16 6.73 2.16 6.73 2.14 6.75 2.14 6.75 2.12 6.8 2.12 6.8 2.1 6.84 2.1 6.84 2.07 6.89 2.07 6.89 2.05 6.91 2.05 6.91 2.03 6.96 2.03 6.96 2.01 7 2.01 7 1.99 7.03 1.99 7.03 1.96 7.07 1.96 7.07 1.94 7.12 1.94 7.12 1.92 7.16 1.92 7.16 1.9 7.18 1.9 7.18 1.87 7.23 1.87 7.23 1.85 7.27 1.85 7.27 1.83 7.32 1.83 7.32 1.81 7.36 1.81 7.36 1.78 7.41 1.78 7.41 1.76 7.45 1.76 7.45 1.74 7.5 1.74 7.5 1.72 7.54 1.72 7.54 1.7 7.59 1.7 7.59 1.67 7.63 1.67 7.63 1.65 7.68 1.65 7.68 1.63 7.72 1.63 7.72 1.61 7.77 1.61 7.77 1.58 7.81 1.58 7.81 1.56 7.86 1.56 7.86 1.54 7.93 1.54 7.93 1.52 7.97 1.52 7.97 1.5 8.02 1.5 8.02 1.47 8.08 1.47 8.08 1.45 8.13 1.45 8.13 1.43 8.2 1.43 8.2 1.41 8.24 1.41 8.24 1.38 8.29 1.38 8.29 1.36 8.35 1.36 8.35 1.34 8.4 1.34 8.4 1.32 8.47 1.32 8.47 1.29 8.51 1.29 8.51 1.27 8.58 1.27 8.58 1.25 8.65 1.25 8.65 1.23 8.71 1.23 8.71 1.21 8.78 1.21 8.78 1.18 8.85 1.18 8.85 1.16 8.92 1.16 8.92 1.14 8.96 1.14 8.96 1.12 9.03 1.12 9.03 1.09 9.1 1.09 9.1 1.07 9.16 1.07 9.16 1.05 9.23 1.05 9.23 1.03 9.32 1.03 9.32 1.01 9.39 1.01 9.39 0.98 9.48 0.98 9.48 0.96 9.55 0.96 9.55 0.94 9.64 0.94 9.64 0.92 9.71 0.92 9.71 0.9 9.79 0.9 9.79 0.87 9.86 0.87 9.86 0.85 9.95 0.85 9.95 0.83 10.04 0.83 10.04 0.81 10.15 0.81 10.15 0.78 10.24 0.78 10.24 0.76 10.34 0.76 10.34 0.74 10.43 0.74 10.43 0.72 10.52 0.72 10.52 0.69 10.63 0.69 10.63 0.67 10.74 0.67 10.74 0.65 10.85 0.65 10.85 0.63 10.99 0.63 10.99 0.61 11.1 0.61 11.1 0.58 11.24 0.58 11.24 0.56 11.39 0.56 11.39 0.54 11.55 0.54 11.55 0.52 11.71 0.52 11.71 0.49 11.87 0.49 11.87 0.47 12.05 0.47 12.05 0.45 12.25 0.45 12.25 0.43 12.45 0.43 12.45 0.41 12.65 0.41 12.65 0.38 12.88 0.38 12.88 0.36 13.13 0.36 13.13 0.34 13.38 0.34 13.38 0.32 13.67 0.32 13.67 0.29 13.96 0.29 13.96 0.27 14.28 0.27 14.28 0.25 14.64 0.25 14.64 0.23 15 0.23 15 0.21 15.4 0.21 15.4 0.18 15.85 0.18 15.85 0.16 16.32 0.16 16.32 0.14 16.89 0.14 16.89 0.12 17.5 0.12 17.5 0.09 18.19 0.09 18.19 0.07 19.05 0.07 19.05 0.05 20.09 0.05 20.09 0.03 21.46 0.03 21.46 0.01 31.48 0.01 31.48 0.03 33.64 0.03 33.64 0.05 35.46 0.05 35.46 0.07 37.13 0.07 37.13 0.09 38.71 0.09 38.71 0.12 40.26 0.12 40.26 0.14 41.81 0.14 41.81 0.16 43.48 0.16 43.48 0.18 45.46 0.18 45.46 0.21 48.25 0.21 48.25 0.23 50.28 0.23 50.28 0.25 51.88 0.25 51.88 0.27 53.27 0.27 53.27 0.29 54.54 0.29 54.54 0.32 55.71 0.32 55.71 0.34 56.79 0.34 56.79 0.36 57.82 0.36 57.82 0.38 58.79 0.38 58.79 0.41 59.74 0.41 59.74 0.43 60.66 0.43 60.66 0.45 61.54 0.45 61.54 0.47 62.37 0.47 62.37 0.49 63.2 0.49 63.2 0.52 64.02 0.52 64.02 0.54 64.8 0.54 64.8 0.56 65.57 0.56 65.57 0.58 66.33 0.58 66.33 0.61 67.06 0.61 67.06 0.63 67.8 0.63 67.8 0.65 68.5 0.65 68.5 0.67 69.19 0.67 69.19 0.69 69.89 0.69 69.89 0.72 70.57 0.72 70.57 0.74 71.24 0.74 71.24 0.76 71.9 0.76 71.9 0.78 72.55 0.78 72.55 0.81 73.18 0.81 73.18 0.83 73.81 0.83 73.81 0.85 74.44 0.85 74.44 0.87 75.05 0.87 75.05 0.9 75.66 0.9 75.66 0.92 76.26 0.92 76.26 0.94 76.85 0.94 76.85 0.96 77.44 0.96 77.44 0.98 78.02 0.98 78.02 1.01 78.61 1.01 78.61 1.03 79.17 1.03 79.17 1.05 79.73 1.05 79.73 1.07 80.29 1.07 80.29 1.09 80.83 1.09 80.83 1.12 81.4 1.12 81.4 1.14 81.94 1.14 81.94 1.16 82.46 1.16 82.46 1.18 83 1.18 83 1.21 83.52 1.21 83.52 1.23 84.03 1.23 84.03 1.25 84.55 1.25 84.55 1.27 85.07 1.27 85.07 1.29 85.56 1.29 85.56 1.32 86.08 1.32 86.08 1.34 86.58 1.34 86.58 1.36 87.07 1.36 87.07 1.38 87.55 1.38 87.55 1.41 88.04 1.41 88.04 1.43 88.51 1.43 88.51 1.45 88.99 1.45 88.99 1.47 89.46 1.47 89.46 1.5 89.91 1.5 89.91 1.52 90.38 1.52 90.38 1.54 90.83 1.54 90.83 1.56 91.28 1.56 91.28 1.58 91.73 1.58 91.73 1.61 92.18 1.61 92.18 1.63 92.61 1.63 92.61 1.65 93.06 1.65 93.06 1.67 93.49 1.67 93.49 1.7 93.92 1.7 93.92 1.72 94.32 1.72 94.32 1.74 94.75 1.74 94.75 1.76 95.16 1.76 95.16 1.78 95.56 1.78 95.56 1.81 95.97 1.81 95.97 1.83 96.37 1.83 96.37 1.85 96.75 1.85 96.75 1.87 97.16 1.87 97.16 1.9 97.54 1.9 97.54 1.92 97.92 1.92 97.92 1.94 98.28 1.94 98.28 1.96 98.67 1.96 98.67 1.99 99.03 1.99 99.03 2.01 99.39 2.01 99.39 2.03 99.73 2.03 99.73 2.05 100.09 2.05 100.09 2.07 100.42 2.07 100.42 2.1 100.76 2.1 100.76 2.12 101.1 2.12 101.1 2.14 101.42 2.14 101.42 2.16 101.73 2.16 101.73 2.19 102.05 2.19 102.05 2.21 102.36 2.21 102.36 2.23 102.65 2.23 102.65 2.25 102.95 2.25 102.95 2.27 103.22 2.27 103.22 2.3 103.49 2.3 103.49 2.32 103.76 2.32 103.76 2.34 104 2.34 104 2.36 104.28 2.36 104.28 2.38 104.5 2.38 104.5 2.41 104.72 2.41 104.72 2.43 104.95 2.43 104.95 2.45 105.15 2.45 105.15 2.47 105.33 2.47 105.33 2.5 105.51 2.5 105.51 2.52 105.67 2.52 105.67 2.54 105.83 2.54 105.83 2.56 105.96 2.56 105.96 2.58 106.08 2.58 106.08 2.61 106.21 2.61 106.21 2.63 106.32 2.63 106.32 2.65 106.44 2.65 106.44 2.67 106.55 2.67 106.55 2.7 106.66 2.7 106.66 2.72 106.77 2.72 106.77 2.74 106.86 2.74 106.86 2.76 106.95 2.76 106.95 2.79 107.07 2.79 107.07 2.81 107.16 2.81 107.16 2.83 107.25 2.83 107.25 2.85 107.34 2.85 107.34 2.87 107.45 2.87 107.45 2.9 107.54 2.9 107.54 2.92 107.63 2.92 107.63 2.94 107.7 2.94 107.7 2.96 107.77 2.96 107.77 2.98 107.86 2.98 107.86 3.01 107.92 3.01 107.92 3.03 107.99 3.03 107.99 3.05 108.08 3.05 108.08 3.07 108.15 3.07 108.15 3.1 108.22 3.1 108.22 3.12 108.31 3.12 108.31 3.14 108.37 3.14 108.37 3.16 108.44 3.16 108.44 3.19 108.48 3.19 108.48 3.21 108.55 3.21 108.55 3.23 108.62 3.23 108.62 3.25 108.67 3.25 108.67 3.27 108.73 3.27 108.73 3.3 108.8 3.3 108.8 3.32 108.85 3.32 108.85 3.34 108.91 3.34 108.91 3.36 108.96 3.36 108.96 3.38 109.03 3.38 109.03 3.41 109.09 3.41 109.09 3.43 109.14 3.43 109.14 3.45 109.18 3.45 109.18 3.47 109.23 3.47 109.23 3.5 109.27 3.5 109.27 3.52 109.32 3.52 109.32 3.54 109.39 3.54 109.39 3.56 109.43 3.56 109.43 3.59 109.48 3.59 109.48 3.61 109.52 3.61 109.52 3.63 109.57 3.63 109.57 3.65 109.61 3.65 109.61 3.67 109.66 3.67 109.66 3.7 109.7 3.7 109.7 3.72 109.75 3.72 109.75 3.74 109.79 3.74 109.79 3.76 109.84 3.76 109.84 3.79 109.88 3.79 109.88 3.81 109.9 3.81 109.9 3.83 109.95 3.83 109.95 3.85 110 3.85 110 3.88 110.02 3.88 110.02 3.9 110.06 3.9 110.06 3.92 110.11 3.92 110.11 3.94 110.13 3.94 110.13 3.96 110.17 3.96 110.17 3.99 110.22 3.99 110.22 4.01 110.24 4.01 110.24 4.03 110.29 4.03 110.29 4.05 110.31 4.05 110.31 4.08 110.35 4.08 110.35 4.1 110.4 4.1 110.4 4.12 110.42 4.12 110.42 4.14 110.44 4.14 110.44 4.16 110.49 4.16 110.49 4.19 110.51 4.19 110.51 4.21 110.53 4.21 110.53 4.23 110.58 4.23 110.58 4.25 110.6 4.25 110.6 4.28 110.62 4.28 110.62 4.3 110.67 4.3 110.67 4.32 110.69 4.32 110.69 4.34 110.71 4.34 110.71 4.36 110.76 4.36 110.76 4.39 110.78 4.39 110.78 4.41 110.81 4.41 110.81 4.43 110.83 4.43 110.83 4.45 110.87 4.45 110.87 4.47 110.89 4.47 110.89 4.5 110.92 4.5 110.92 4.52 110.94 4.52 110.94 4.54 110.96 4.54 110.96 4.56 110.98 4.56 110.98 4.59 111.03 4.59 111.03 4.61 111.05 4.61 111.05 4.63 111.07 4.63 111.07 4.65 111.1 4.65 111.1 4.67 111.12 4.67 111.12 4.7 111.14 4.7 111.14 4.72 111.17 4.72 111.17 4.74 111.19 4.74 111.19 4.76 111.21 4.76 111.21 4.79 111.23 4.79 111.23 4.81 111.25 4.81 111.25 4.83 111.28 4.83 111.28 4.85 111.3 4.85 111.3 4.88 111.32 4.88 111.32 4.9 111.34 4.9 111.34 4.92 111.37 4.92 111.37 4.94 111.39 4.94 111.39 4.96 111.41 4.96 111.41 4.99 111.43 4.99 111.43 5.03 111.46 5.03 111.46 5.05 111.48 5.05 111.48 5.08 111.5 5.08 111.5 5.1 111.53 5.1 111.53 5.14 111.55 5.14 111.55 5.16 111.57 5.16 111.57 5.19 111.59 5.19 111.59 5.21 111.61 5.21 111.61 5.25 111.64 5.25 111.64 5.28 111.66 5.28 111.66 5.3 111.68 5.3 111.68 5.32 111.7 5.32 111.7 5.37 111.73 5.37 111.73 5.39 111.75 5.39 111.75 5.41 111.77 5.41 111.77 5.43 111.8 5.43 111.8 5.48 111.82 5.48 111.82 5.52 111.84 5.52 111.84 5.54 111.86 5.54 111.86 5.59 111.89 5.59 111.89 5.63 111.91 5.63 111.91 5.65 111.93 5.65 111.93 5.7 111.95 5.7 111.95 5.72 111.97 5.72 111.97 5.76 112 5.76 112 5.81 112.02 5.81 112.02 5.83 112.04 5.83 112.04 5.88 112.06 5.88 112.06 5.92 112.09 5.92 112.09 5.94 112.11 5.94 112.11 5.99 112.13 5.99 112.13 6.03 112.16 6.03 112.16 6.08 112.18 6.08 112.18 6.12 112.2 6.12 112.2 6.19 112.22 6.19 112.22 6.23 112.25 6.23 112.25 6.28 112.27 6.28 112.27 6.32 112.29 6.32 112.29 6.39 112.31 6.39 112.31 6.43 112.33 6.43 112.33 6.48 112.36 6.48 112.36 6.52 112.38 6.52 112.38 6.59 112.4 6.59 112.4 6.63 112.42 6.63 112.42 6.7 112.45 6.7 112.45 6.79 112.47 6.79 112.47 6.85 112.49 6.85 112.49 6.92 112.52 6.92 112.52 6.99 112.54 6.99 112.54 7.05 112.56 7.05 112.56 7.14 112.58 7.14 112.58 7.21 112.61 7.21 112.61 7.28 112.63 7.28 112.63 7.39 112.65 7.39 112.65 7.5 112.67 7.5 112.67 7.61 112.69 7.61 112.69 7.72 112.72 7.72 112.72 7.83 112.74 7.83 112.74 7.94 112.76 7.94 112.76 8.1 112.78 8.1 112.78 8.32 112.81 8.32 112.81 8.52 112.83 8.52 112.83 8.74 112.85 8.74 112.85 10.37 112.83 10.37 112.83 10.68 112.81 10.68 112.81 10.95 112.79 10.95 112.79 11.15 112.76 11.15 112.76 11.37 112.74 11.37 112.74 11.57 112.72 11.57 112.72 11.77 112.7 11.77 112.7 11.97 112.67 11.97 112.67 12.13 112.65 12.13 112.65 12.26 112.63 12.26 112.63 12.41 112.61 12.41 112.61 12.55 112.58 12.55 112.58 12.7 112.56 12.7 112.56 12.86 112.54 12.86 112.54 12.99 112.52 12.99 112.52 13.15 112.49 13.15 112.49 13.28 112.47 13.28 112.47 13.41 112.45 13.41 112.45 13.53 112.43 13.53 112.43 13.64 112.4 13.64 112.4 13.75 112.38 13.75 112.38 13.86 112.36 13.86 112.36 13.97 112.34 13.97 112.34 14.06 112.31 14.06 112.31 14.17 112.29 14.17 112.29 14.28 112.27 14.28 112.27 14.39 112.25 14.39 112.25 14.5 112.22 14.5 112.22 14.62 112.2 14.62 112.2 14.73 112.18 14.73 112.18 14.81 112.16 14.81 112.16 14.9 112.13 14.9 112.13 14.99 112.11 14.99 112.11 15.08 112.09 15.08 112.09 15.15 112.06 15.15 112.06 15.24 112.04 15.24 112.04 15.33 112.02 15.33 112.02 15.42 112 15.42 112 15.5 111.97 15.5 111.97 15.59 111.95 15.59 111.95 15.68 111.93 15.68 111.93 15.77 111.91 15.77 111.91 15.86 111.89 15.86 111.89 15.95 111.86 15.95 111.86 16.04 111.84 16.04 111.84 16.11 111.82 16.11 111.82 16.17 111.8 16.17 111.8 16.26 111.77 16.26 111.77 16.33 111.75 16.33 111.75 16.39 111.73 16.39 111.73 16.46 111.7 16.46 111.7 16.55 111.68 16.55 111.68 16.62 111.66 16.62 111.66 16.68 111.64 16.68 111.64 16.77 111.61 16.77 111.61 16.84 111.59 16.84 111.59 16.91 111.57 16.91 111.57 16.97 111.55 16.97 111.55 17.06 111.53 17.06 111.53 17.13 111.5 17.13 111.5 17.19 111.48 17.19 111.48 17.28 111.46 17.28 111.46 17.33 111.44 17.33 111.44 17.39 111.41 17.39 111.41 17.46 111.39 17.46 111.39 17.53 111.37 17.53 111.37 17.59 111.34 17.59 111.34 17.66 111.32 17.66 111.32 17.71 111.3 17.71 111.3 17.77 111.28 17.77 111.28 17.84 111.25 17.84 111.25 17.91 111.23 17.91 111.23 17.97 111.21 17.97 111.21 18.04 111.19 18.04 111.19 18.08 111.17 18.08 111.17 18.15 111.14 18.15 111.14 18.22 111.12 18.22 111.12 18.28 111.1 18.28 111.1 18.35 111.08 18.35 111.08 18.39 111.05 18.39 111.05 18.46 111.03 18.46 111.03 18.53 111.01 18.53 111.01 18.57 110.98 18.57 110.98 18.64 110.96 18.64 110.96 18.68 110.94 18.68 110.94 18.75 110.92 18.75 110.92 18.8 110.89 18.8 110.89 18.86 110.87 18.86 110.87 18.91 110.85 18.91 110.85 18.95 110.83 18.95 110.83 19.02 110.81 19.02 110.81 19.06 110.78 19.06 110.78 19.13 110.76 19.13 110.76 19.17 110.74 19.17 110.74 19.24 110.72 19.24 110.72 19.29 110.69 19.29 110.69 19.35 110.67 19.35 110.67 19.4 110.65 19.4 110.65 19.46 110.62 19.46 110.62 19.51 110.6 19.51 110.6 19.57 110.58 19.57 110.58 19.62 110.56 19.62 110.56 19.66 110.53 19.66 110.53 19.71 110.51 19.71 110.51 19.77 110.49 19.77 110.49 19.82 110.47 19.82 110.47 19.86 110.44 19.86 110.44 19.91 110.42 19.91 110.42 19.98 110.4 19.98 110.4 20.02 110.38 20.02 110.38 20.06 110.35 20.06 110.35 20.11 110.33 20.11 110.33 20.18 110.31 20.18 110.31 20.22 110.29 20.22 110.29 20.26 110.26 20.26 110.26 20.31 110.24 20.31 110.24 20.35 110.22 20.35 110.22 20.42 110.2 20.42 110.2 20.46 110.17 20.46 110.17 20.51 110.15 20.51 110.15 20.55 110.13 20.55 110.13 20.6 110.11 20.6 110.11 20.64 110.08 20.64 110.08 20.69 110.06 20.69 110.06 20.73 110.04 20.73 110.04 20.78 110.02 20.78 110.02 20.82 109.99 20.82 109.99 20.86 109.97 20.86 109.97 20.91 109.95 20.91 109.95 20.95 109.93 20.95 109.93 21 109.9 21 109.9 21.02 109.88 21.02 109.88 21.07 109.86 21.07 109.86 21.11 109.84 21.11 109.84 21.16 109.81 21.16 109.81 21.2 109.79 21.2 109.79 21.24 109.77 21.24 109.77 21.29 109.75 21.29 109.75 21.31 109.72 21.31 109.72 21.36 109.7 21.36 109.7 21.4 109.68 21.4 109.68 21.44 109.66 21.44 109.66 21.47 109.63 21.47 109.63 21.51 109.61 21.51 109.61 21.53 109.59 21.53 109.59 21.58 109.57 21.58 109.57 21.62 109.54 21.62 109.54 21.64 109.52 21.64 109.52 21.69 109.5 21.69 109.5 21.71 109.48 21.71 109.48 21.76 109.45 21.76 109.45 21.8 109.43 21.8 109.43 21.82 109.41 21.82 109.41 21.87 109.39 21.87 109.39 21.89 109.36 21.89 109.36 21.93 109.34 21.93 109.34 21.98 109.32 21.98 109.32 22 109.3 22 109.3 22.05 109.27 22.05 109.27 22.07 109.25 22.07 109.25 22.11 109.23 22.11 109.23 22.13 109.21 22.13 109.21 22.16 109.18 22.16 109.18 22.2 109.16 22.2 109.16 22.22 109.14 22.22 109.14 22.25 109.12 22.25 109.12 22.29 109.09 22.29 109.09 22.31 109.07 22.31 109.07 22.33 109.05 22.33 109.05 22.38 109.03 22.38 109.03 22.4 109 22.4 109 22.42 108.98 22.42 108.98 22.47 108.96 22.47 108.96 22.49 108.94 22.49 108.94 22.51 108.91 22.51 108.91 22.56 108.89 22.56 108.89 22.58 108.87 22.58 108.87 22.6 108.85 22.6 108.85 22.64 108.82 22.64 108.82 22.67 108.8 22.67 108.8 22.69 108.78 22.69 108.78 22.71 108.76 22.71 108.76 22.73 108.73 22.73 108.73 22.76 108.71 22.76 108.71 22.78 108.69 22.78 108.69 22.8 108.67 22.8 108.67 22.82 108.64 22.82 108.64 22.84 108.62 22.84 108.62 22.89 108.6 22.89 108.6 22.91 108.58 22.91 108.58 22.93 108.55 22.93 108.55 22.96 108.53 22.96 108.53 22.98 108.51 22.98 108.51 23 108.48 23 108.48 23.02 108.46 23.02 108.46 23.04 108.44 23.04 108.44 23.07 108.42 23.07 108.42 23.09 108.39 23.09 108.39 23.13 108.37 23.13 108.37 23.16 108.35 23.16 108.35 23.18 108.31 23.18 108.31 23.2 108.28 23.2 108.28 23.22 108.26 23.22 108.26 23.24 108.24 23.24 108.24 23.27 108.22 23.27 108.22 23.29 108.19 23.29 108.19 23.31 108.17 23.31 108.17 23.33 108.15 23.33 108.15 23.36 108.13 23.36 108.13 23.38 108.08 23.38 108.08 23.4 108.06 23.4 108.06 23.42 108.03 23.42 108.03 23.44 108.01 23.44 108.01 23.47 107.99 23.47 107.99 23.49 107.97 23.49 107.97 23.51 107.94 23.51 107.94 23.53 107.92 23.53 107.92 23.55 107.9 23.55 107.9 23.58 107.86 23.58 107.86 23.6 107.83 23.6 107.83 23.62 107.81 23.62 107.81 23.64 107.79 23.64 107.79 23.67 107.74 23.67 107.74 23.69 107.72 23.69 107.72 23.71 107.67 23.71 107.67 23.73 107.65 23.73 107.65 23.75 107.63 23.75 107.63 23.78 107.58 23.78 107.58 23.8 107.56 23.8 107.56 23.82 107.54 23.82 107.54 23.84 107.5 23.84 107.5 23.86 107.47 23.86 107.47 23.89 107.45 23.89 107.45 23.91 107.41 23.91 107.41 23.93 107.38 23.93 107.38 23.95 107.34 23.95 107.34 23.98 107.31 23.98 107.31 24 107.29 24 107.29 24.02 107.25 24.02 107.25 24.04 107.2 24.04 107.2 24.07 107.18 24.07 107.18 24.09 107.13 24.09 107.13 24.11 107.09 24.11 107.09 24.13 107.07 24.13 107.07 24.15 107.02 24.15 107.02 24.18 106.98 24.18 106.98 24.2 106.93 24.2 106.93 24.22 106.91 24.22 106.91 24.24 106.86 24.24 106.86 24.26 106.82 24.26 106.82 24.29 106.8 24.29 106.8 24.31 106.75 24.31 106.75 24.33 106.71 24.33 106.71 24.35 106.68 24.35 106.68 24.38 106.62 24.38 106.62 24.4 106.57 24.4 106.57 24.42 106.53 24.42 106.53 24.44 106.48 24.44 106.48 24.46 106.44 24.46 106.44 24.49 106.39 24.49 106.39 24.51 106.35 24.51 106.35 24.53 106.3 24.53 106.3 24.55 106.26 24.55 106.26 24.57 106.21 24.57 106.21 24.6 106.14 24.6 106.14 24.62 106.1 24.62 106.1 24.64 106.05 24.64 106.05 24.66 106.01 24.66 106.01 24.69 105.94 24.69 105.94 24.71 105.9 24.71 105.9 24.73 105.83 24.73 105.83 24.75 105.76 24.75 105.76 24.77 105.72 24.77 105.72 24.8 105.65 24.8 105.65 24.82 105.6 24.82 105.6 24.84 105.54 24.84 105.54 24.86 105.47 24.86 105.47 24.89 105.42 24.89 105.42 24.91 105.36 24.91 105.36 24.93 105.29 24.93 105.29 24.95 105.22 24.95 105.22 24.97 105.15 24.97 105.15 25 105.08 25 105.08 25.02 105 25.02 105 25.04 104.93 25.04 104.93 25.06 104.86 25.06 104.86 25.09 104.79 25.09 104.79 25.11 104.72 25.11 104.72 25.13 104.64 25.13 104.64 25.15 104.57 25.15 104.57 25.17 104.48 25.17 104.48 25.2 104.39 25.2 104.39 25.22 104.3 25.22 104.3 25.24 104.21 25.24 104.21 25.26 104.12 25.26 104.12 25.29 104.03 25.29 104.03 25.31 103.94 25.31 103.94 25.33 103.87 25.33 103.87 25.35 103.78 25.35 103.78 25.37 103.67 25.37 103.67 25.4 103.55 25.4 103.55 25.42 103.46 25.42 103.46 25.44 103.35 25.44 103.35 25.46 103.24 25.46 103.24 25.48 103.13 25.48 103.13 25.51 103.01 25.51 103.01 25.53 102.92 25.53 102.92 25.55 102.81 25.55 102.81 25.57 102.68 25.57 102.68 25.59 102.54 25.59 102.54 25.62 102.43 25.62 102.43 25.64 102.29 25.64 102.29 25.66 102.16 25.66 102.16 25.68 102.05 25.68 102.05 25.71 101.91 25.71 101.91 25.73 101.78 25.73 101.78 25.75 101.62 25.75 101.62 25.77 101.48 25.77 101.48 25.8 101.33 25.8 101.33 25.82 101.19 25.82 101.19 25.84 101.03 25.84 101.03 25.86 100.88 25.86 100.88 25.88 100.74 25.88 100.74 25.91 100.56 25.91 100.56 25.93 100.4 25.93 100.4 25.95 100.24 25.95 100.24 25.97 100.06 25.97 100.06 26 99.91 26 99.91 26.02 99.75 26.02 99.75 26.04 99.57 26.04 99.57 26.06 99.41 26.06 99.41 26.08 99.23 26.08 99.23 26.11 99.05 26.11 99.05 26.13 98.89 26.13 98.89 26.15 98.71 26.15 98.71 26.17 98.53 26.17 98.53 26.19 98.35 26.19 98.35 26.22 98.17 26.22 98.17 26.24 97.97 26.24 97.97 26.26 97.79 26.26 97.79 26.28 97.61 26.28 97.61 26.3 97.41 26.3 97.41 26.33 97.2 26.33 97.2 26.35 97 26.35 97 26.37 96.8 26.37 96.8 26.39 96.57 26.39 96.57 26.42 96.37 26.42 96.37 26.44 96.15 26.44 96.15 26.46 95.94 26.46 95.94 26.48 95.72 26.48 95.72 26.5 95.47 26.5 95.47 26.53 95.25 26.53 95.25 26.55 95.02 26.55 95.02 26.57 94.77 26.57 94.77 26.59 94.53 26.59 94.53 26.62 94.3 26.62 94.3 26.64 94.05 26.64 94.05 26.66 93.78 26.66 93.78 26.68 93.53 26.68 93.53 26.7 93.26 26.7 93.26 26.73 93.02 26.73 93.02 26.75 92.75 26.75 92.75 26.77 92.48 26.77 92.48 26.79 92.21 26.79 92.21 26.82 91.91 26.82 91.91 26.84 91.64 26.84 91.64 26.86 91.35 26.86 91.35 26.88 91.06 26.88 91.06 26.9 90.77 26.9 90.77 26.93 90.47 26.93 90.47 26.95 90.16 26.95 90.16 26.97 89.86 26.97 89.86 26.99 89.55 26.99 89.55 27.02 89.23 27.02 89.23 27.04 88.92 27.04 88.92 27.06 88.6 27.06 88.6 27.08 88.27 27.08 88.27 27.1 87.95 27.1 87.95 27.13 87.61 27.13 87.61 27.15 87.28 27.15 87.28 27.17 86.94 27.17 86.94 27.19 86.58 27.19 86.58 27.21 86.24 27.21 86.24 27.24 85.88 27.24 85.88 27.26 85.52 27.26 85.52 27.28 85.16 27.28 85.16 27.3 84.8 27.3 84.8 27.32 84.44 27.32 84.44 27.35 84.06 27.35 84.06 27.37 83.67 27.37 83.67 27.39 83.29 27.39 83.29 27.41 82.91 27.41 82.91 27.44 82.5 27.44 82.5 27.46 82.12 27.46 82.12 27.48 81.71 27.48 81.71 27.5 81.31 27.5 81.31 27.52 80.9 27.52 80.9 27.55 80.47 27.55 80.47 27.57 80.07 27.57 80.07 27.59 79.64 27.59 79.64 27.61 79.21 27.61 79.21 27.64 78.79 27.64 78.79 27.66 78.34 27.66 78.34 27.68 77.89 27.68 77.89 27.7 77.46 27.7 77.46 27.73 76.98 27.73 76.98 27.75 76.53 27.75 76.53 27.77 76.08 27.77 76.08 27.79 75.61 27.79 75.61 27.81 75.14 27.81 75.14 27.84 74.67 27.84 74.67 27.86 74.19 27.86 74.19 27.88 73.7 27.88 73.7 27.9 73.2 27.9 73.2 27.92 72.71 27.92 72.71 27.95 72.21 27.95 72.21 27.97 71.69 27.97 71.69 27.99 71.2 27.99 71.2 28.01 70.68 28.01 70.68 28.04 70.16 28.04 70.16 28.06 69.62 28.06 69.62 28.08 69.1 28.08 69.1 28.1 68.56 28.1 68.56 28.12 68 28.12 68 28.15 67.46 28.15 67.46 28.17 66.9 28.17 66.9 28.19 66.36 28.19 66.36 28.21 65.79 28.21 65.79 28.23 65.21 28.23 65.21 28.26 64.62 28.26 64.62 28.28 64.06 28.28 64.06 28.3 63.45 28.3 63.45 28.32 62.87 28.32 62.87 28.35 62.26 28.35 62.26 28.37 61.65 28.37 61.65 28.39 61.04 28.39 61.04 28.41 60.44 28.41 60.44 28.43 59.8 28.43 59.8 28.46 59.17 28.46 59.17 28.48 58.52 28.48 58.52 28.5 57.89 28.5 57.89 28.52 57.24 28.52 57.24 28.55 56.58 28.55 56.58 28.57 55.91 28.57 55.91 28.59 55.23 28.59 55.23 28.61 54.56 28.61 54.56 28.63 53.88 28.63 53.88 28.66 53.18 28.66 53.18 28.68 52.49 28.68 52.49 28.7 51.79 28.7 51.79 28.72 51.07 28.72 51.07 28.75 50.35 28.75 50.35 28.77 49.63 28.77 49.63 28.79 48.88 28.79 48.88 28.81 48.14 28.81 48.14 28.83 47.38 28.83 47.38 28.86 46.63 28.86 46.63 28.88 45.84 28.88 45.84 28.9 45.06 28.9 45.06 28.92 44.27 28.92 44.27 28.95 43.46 28.95 43.46 28.97 42.65 28.97 42.65 28.99 41.81 28.99 41.81 29.01 40.96 29.01 40.96 29.03 40.08 29.03 40.08 29.06 39.22 29.06 39.22 29.08 38.3 29.08 38.3 29.1 37.38 29.1 37.38 29.12 36.43 29.12 36.43 29.14 35.46 29.14 35.46 29.17 34.45 29.17 34.45 29.19 33.39 29.19 33.39 29.21 32.31 29.21 32.31 29.23 31.19 29.23 31.19 29.25 29.97 29.25 29.97 29.28 28.69 29.28 28.69 29.3 27.31 29.3 27.31 29.32 25.8 29.32 25.8 29.34 24.07 29.34 24.07 29.37 21.89 29.37 21.89 29.39"/></g><g class="cls-7"><polyline class="cls-8" points="38.63 7.15 38.1 20.51 35.32 20.51 35.89 11.6 32.02 20.51 29.18 20.51 35.23 7.15 38.63 7.15"/><path class="cls-8" d="M66.23,10.61C65.84,12.33,64.71,17,64.71,17s-.37,1.61-1.62,1.61H61.58s-.89-.05-.41-1.61,1.52-6.35,1.52-6.35S63,9.11,64,9.1h1.63s.95-.13.58,1.51ZM63.51,7.15c-2.92,0-3.59,3.47-3.59,3.47l-1.7,7.12a2.17,2.17,0,0,0,2.1,2.77h3.54c3,0,3.62-3.56,3.62-3.56L69,10.6c.81-3.42-1.94-3.45-1.94-3.45H63.51" transform="translate(-0.07 0)"/><path class="cls-8" d="M102.65,10.6c-.41,1.71-1.51,6.35-1.51,6.35s-.38,1.61-1.62,1.61H98s-.9,0-.42-1.61,1.52-6.35,1.52-6.35.26-1.51,1.34-1.51h1.62s1-.15.58,1.51ZM99.94,7.15c-2.91,0-3.6,3.46-3.6,3.46l-1.7,7.12a2.13,2.13,0,0,0,2.1,2.78h3.55c3,0,3.61-3.57,3.61-3.57l1.52-6.35c.8-3.4-1.94-3.44-1.94-3.44H99.94" transform="translate(-0.07 0)"/><path class="cls-8" d="M75.27,11.26c-.54,2.51-1.77,2.4-1.77,2.4H71.72l1.09-4.54,1.86,0s1.1-.1.6,2.17ZM70.5,7.15,67.32,20.51H70.1l1.15-4.89,3,0c.26,0,2.69.31,3.76-4.16,1.07-4.32-1.76-4.29-1.76-4.29H70.5" transform="translate(-0.07 0)"/><path class="cls-8" d="M81.27,15.93h-1.6l1.89-4.35-.29,4.34Zm-6.43,4.58h2.85l1.14-2.63h2.32L81,20.51h2.78l.53-13.36H80.9L74.84,20.51" transform="translate(-0.07 0)"/><path class="cls-8" d="M92.88,10.73s-1,4-1.42,6-1.67,1.88-1.67,1.88H87.61L89.87,9.1h2.39c1.18,0,.62,1.63.62,1.63ZM87.57,7.15,84.38,20.51h6.17s2.67-.08,3.66-3.76l1.36-5.7s.89-3.58-1.83-3.9H87.57" transform="translate(-0.07 0)"/><path class="cls-8" d="M56.5,10.73s-1,4-1.42,6-1.67,1.88-1.67,1.88H51.23L53.49,9.1h2.39c1.17,0,.62,1.63.62,1.63ZM51.19,7.15,48,20.51h6.17s2.66-.08,3.66-3.76l1.36-5.7s.89-3.58-1.83-3.9H51.19" transform="translate(-0.07 0)"/><path class="cls-8" d="M24,7.15h5.73s2.78-.09,1.95,3.38-1.47,6.16-1.47,6.16-.75,3.84-3.67,3.82H20.75l.47-2h4.51s1.17.05,1.65-1.8l.44-1.92H23.66l.46-1.95h4.19l.6-2.51s.4-1.26-.51-1.26H23.47l.48-2" transform="translate(-0.07 0)"/><path class="cls-8" d="M45.45,16.8c-.48,1.89-1.71,1.76-1.71,1.76h-1.6l1-4.44H44.8c1.26,0,1.21.35.65,2.69Zm1.1-4.65h-2.9l1.22-5H42.1L38.91,20.51h5.66s2.7.12,3.7-4c0,0,1.26-4.4-1.72-4.4h0" transform="translate(-0.07 0)"/><path class="cls-8" d="M18.93,15.9H22.3L22,17.17H18.64L18,19.9H12.65a1.43,1.43,0,0,1-1.2-.44,2.4,2.4,0,0,1-.26-1.77L12,14.22H9.21L9.51,13h2.8l.62-2.56C13.53,8,15,7.76,16.49,7.76h4.37l-.63,2.75h3.35l-.3,1.26H19.93l-1,4.13Zm4.84-3.52.59-2.48H21l.63-2.75H16.49c-1.54,0-3.45.22-4.15,3.11l-.52,2.09H9l-.58,2.48h2.81l-.65,2.73s-.69,3,2.05,3h5.79l.68-2.74h3.37l.59-2.47H19.71l.7-2.92h3.36" transform="translate(-0.07 0)"/></g></g></g></g></g></svg>