<svg xmlns="http://www.w3.org/2000/svg" xmlns:xlink="http://www.w3.org/1999/xlink" viewBox="0 0 89.94 48.25"><defs><style>.cls-1,.cls-2{fill:none;}.cls-1{clip-rule:evenodd;}.cls-3{clip-path:url(#clip-path);}.cls-4{clip-path:url(#clip-path-2);}.cls-5{fill:#030404;}.cls-6{fill:#28a517;}</style><clipPath id="clip-path" transform="translate(-0.03)"><polygon class="cls-1" points="0 48.25 90 48.25 90 0 0 0 0 48.25 0 48.25"/></clipPath><clipPath id="clip-path-2" transform="translate(-0.03)"><polygon class="cls-2" points="0 48.25 90 48.25 90 0 0 0 0 48.25 0 48.25"/></clipPath></defs><title>ion</title><g id="Layer_2" data-name="Layer 2"><g id="Layer_1-2" data-name="Layer 1"><g class="cls-3"><g class="cls-4"><polyline class="cls-5" points="1.63 39.22 1.63 45.1 4.1 45.1 4.1 39.22 5.69 39.22 5.69 45.15 6.4 45.19 6.32 48.25 5.12 48.25 5.03 46.43 0.03 46.43 0.03 39.22 1.63 39.22"/><path class="cls-5" d="M8.57,39.22v2.14c0,1.16,0,2.3-.08,3.26h0c.38-.84.85-1.79,1.27-2.56l1.52-2.84h1.63v7.21H11.48V44.3c0-1.11,0-2.09.11-3h0a20.2,20.2,0,0,1-1.2,2.57l-1.44,2.6H7.11V39.22H8.57" transform="translate(-0.03)"/><path class="cls-5" d="M18.56,38.9v.66a3.16,3.16,0,0,1,3.28,3.26c0,2.23-1.65,3.13-3.3,3.26v.68h-1.6v-.68c-1.6-.1-3.27-1-3.27-3.2A3.29,3.29,0,0,1,17,39.56V38.9h1.6M17,40.72a1.86,1.86,0,0,0-1.6,2.11A1.89,1.89,0,0,0,17,44.9V40.72Zm1.59,4.18a1.83,1.83,0,0,0,1.6-2.08c0-1.48-.85-2-1.6-2.1V44.9Z" transform="translate(-0.03)"/><path class="cls-5" d="M22.62,39.32a12.3,12.3,0,0,1,2.16-.15,3.26,3.26,0,0,1,2.16.59,2,2,0,0,1,.75,1.66A2.27,2.27,0,0,1,27,43.13a3.28,3.28,0,0,1-2.29.76,2.24,2.24,0,0,1-.55,0v2.59H22.62V39.32m1.58,3.27a2.58,2.58,0,0,0,.54,0c.85,0,1.37-.43,1.37-1.16s-.45-1.06-1.26-1.06a3,3,0,0,0-.65.05v2.13Z" transform="translate(-0.03)"/><path class="cls-5" d="M31.85,46.56a3.51,3.51,0,0,1-3.69-3.66A3.66,3.66,0,0,1,32,39.09a3.52,3.52,0,0,1,3.74,3.68,3.63,3.63,0,0,1-3.85,3.79h0m.09-1.33c1.25,0,2-1,2-2.4a2.15,2.15,0,0,0-2-2.41c-1.26,0-2,1.08-2,2.43a2.12,2.12,0,0,0,2,2.38Z" transform="translate(-0.03)"/><path class="cls-5" d="M36.52,39.33a11.75,11.75,0,0,1,2.06-.16,3.84,3.84,0,0,1,2.09.4A1.58,1.58,0,0,1,41.51,41a1.64,1.64,0,0,1-1.15,1.53v0a1.78,1.78,0,0,1,1.4,1.78A1.92,1.92,0,0,1,41,45.86a4.47,4.47,0,0,1-2.78.65,12.43,12.43,0,0,1-1.73-.11V39.33m1.58,2.75h.53c.84,0,1.29-.36,1.29-.89s-.41-.84-1.14-.84a3,3,0,0,0-.68.06v1.67Zm0,3.2a3.58,3.58,0,0,0,.62,0c.72,0,1.36-.29,1.36-1.05s-.64-1-1.43-1H38.1v2Z" transform="translate(-0.03)"/><path class="cls-5" d="M46,46.56a3.51,3.51,0,0,1-3.69-3.66,3.65,3.65,0,0,1,3.81-3.81,3.52,3.52,0,0,1,3.74,3.68A3.63,3.63,0,0,1,46,46.56h0M46,45.23c1.25,0,2-1,2-2.4a2.15,2.15,0,0,0-2-2.41c-1.25,0-2,1.08-2,2.43a2.13,2.13,0,0,0,2,2.38Z" transform="translate(-0.03)"/><path class="cls-5" d="M52.11,39.22v2.14c0,1.16,0,2.3-.09,3.26h0c.38-.84.85-1.79,1.27-2.56l1.52-2.84h1.64v7.21H55V44.3c0-1.11,0-2.09.11-3h0a20.2,20.2,0,0,1-1.2,2.57l-1.44,2.6H50.64V39.22h1.47m1-1.65c0,.42.14.66.47.66S54,38,54,37.57h1.08c-.06.91-.66,1.32-1.59,1.32A1.33,1.33,0,0,1,52,37.57Z" transform="translate(-0.03)"/><polyline class="cls-5" points="61.38 39.22 61.38 45.1 63.85 45.1 63.85 39.22 65.44 39.22 65.44 45.15 66.14 45.19 66.07 48.25 64.87 48.25 64.78 46.43 59.78 46.43 59.78 39.22 61.38 39.22"/><polyline class="cls-5" points="71.03 43.38 68.42 43.38 68.42 45.1 71.33 45.1 71.33 46.43 66.83 46.43 66.83 39.22 71.18 39.22 71.18 40.56 68.42 40.56 68.42 42.06 71.03 42.06 71.03 43.38"/><polyline class="cls-5" points="73.81 39.22 73.81 42 76.44 42 76.44 39.22 78.04 39.22 78.04 46.43 76.44 46.43 76.44 43.42 73.81 43.42 73.81 46.43 72.22 46.43 72.22 39.22 73.81 39.22"/><polyline class="cls-5" points="80.76 40.59 78.85 40.59 78.85 39.22 84.28 39.22 84.28 40.59 82.36 40.59 82.36 46.43 80.76 46.43 80.76 40.59"/><path class="cls-5" d="M84.9,39.32a12.3,12.3,0,0,1,2.16-.15,3.28,3.28,0,0,1,2.16.59A2,2,0,0,1,90,41.42a2.27,2.27,0,0,1-.65,1.71,3.31,3.31,0,0,1-2.3.76,2.16,2.16,0,0,1-.54,0v2.59H84.9V39.32m1.58,3.27a2.47,2.47,0,0,0,.53,0c.85,0,1.38-.43,1.38-1.16s-.45-1.06-1.26-1.06a2.91,2.91,0,0,0-.65.05v2.13Z" transform="translate(-0.03)"/><path class="cls-5" d="M86.72,0a3.23,3.23,0,0,0-3.2,3.27v7.63a.8.8,0,0,1-.78.62H71.52a.81.81,0,0,1-.8-.7V3.3a3.21,3.21,0,1,0-6.41,0V29.48a3.21,3.21,0,1,0,6.41,0V18.8a.82.82,0,0,1,.8-.71H82.74a.81.81,0,0,1,.78.63V29.48a3.21,3.21,0,1,0,6.41,0V3.3A3.24,3.24,0,0,0,86.72,0" transform="translate(-0.03)"/><path class="cls-5" d="M22.44,0a3.17,3.17,0,0,0-2.67,1.46l-12.48,17a.46.46,0,0,1-.38.2.48.48,0,0,1-.47-.48V3.27A3.24,3.24,0,0,0,3.23,0,3.17,3.17,0,0,0,1.09.84l-.24.24A3.31,3.31,0,0,0,0,3.27V29.45a3.24,3.24,0,0,0,3.2,3.27h0a3.15,3.15,0,0,0,2.3-1c.07-.05,12.83-17.44,12.87-17.48a.45.45,0,0,1,.35-.16.47.47,0,0,1,.47.48v14.9a3.21,3.21,0,1,0,6.41,0V3.27A3.23,3.23,0,0,0,22.44,0" transform="translate(-0.03)"/><path class="cls-5" d="M45,.05A16.19,16.19,0,0,0,29,16.41a16,16,0,1,0,32.05,0A16.19,16.19,0,0,0,45,.05" transform="translate(-0.03)"/><path class="cls-6" d="M37.06,8.31a11.62,11.62,0,0,0,0,16.19,11.07,11.07,0,0,0,15.87,0,11.62,11.62,0,0,0,0-16.19,2.37,2.37,0,0,0-3.4,0,2.49,2.49,0,0,0,0,3.47,6.64,6.64,0,0,1,0,9.25,6.32,6.32,0,0,1-9.07,0,6.64,6.64,0,0,1,0-9.25,2.49,2.49,0,0,0,0-3.47,2.37,2.37,0,0,0-3.4,0" transform="translate(-0.03)"/><path class="cls-6" d="M47.4,13a2.41,2.41,0,1,1-4.81,0V5.62a2.41,2.41,0,1,1,4.81,0V13" transform="translate(-0.03)"/></g></g></g></g></svg>