<svg xmlns="http://www.w3.org/2000/svg" xmlns:xlink="http://www.w3.org/1999/xlink" viewBox="0 0 102.92 52.86"><defs><style>.cls-1,.cls-2{fill:none;}.cls-1{clip-rule:evenodd;}.cls-3{clip-path:url(#clip-path);}.cls-4{clip-path:url(#clip-path-2);}.cls-5{fill:#4bac6d;}</style><clipPath id="clip-path" transform="translate(-0.04)"><polygon class="cls-1" points="0 52.86 103 52.86 103 0 0 0 0 52.86 0 52.86"/></clipPath><clipPath id="clip-path-2" transform="translate(-0.04)"><polygon class="cls-2" points="0 52.86 103 52.86 103 0 0 0 0 52.86 0 52.86"/></clipPath></defs><title>megafon</title><g id="Layer_2" data-name="Layer 2"><g id="Layer_1-2" data-name="Layer 1"><g class="cls-3"><g class="cls-4"><path class="cls-5" d="M32.66,43.55H23.12A1.63,1.63,0,0,0,22,44a1.35,1.35,0,0,0-.41.8l0,.33v6.17l0,.36a1.59,1.59,0,0,0,.41.75,1.56,1.56,0,0,0,1.09.47h9.54V51.64H25a1,1,0,0,1-.72-.32,1,1,0,0,1-.33-.74V48.9h8.73V47.51H23.93V45.83a1,1,0,0,1,.33-.74,1.06,1.06,0,0,1,.72-.32h7.68V43.55Z" transform="translate(-0.04)"/><path class="cls-5" d="M18.5,41.8H17.45l-.34,0h-.62l-.64.16-.24.18-5.45,9.08L4.77,42.05a1.09,1.09,0,0,0-.7-.25H1.51a1.62,1.62,0,0,0-1.14.46L0,42.77H0V52.86H2.78V44.11a1.4,1.4,0,0,0,.63.16h.1l4.76,8.14a1.33,1.33,0,0,0,.87.33h2a1.28,1.28,0,0,0,.89-.35l4.68-8.1h.41l.35,0v8.61h2.63V43.39a1.56,1.56,0,0,0-.48-1.13,1.53,1.53,0,0,0-1.1-.46Z" transform="translate(-0.04)"/><path class="cls-5" d="M85.8,43.55H78.94a3.67,3.67,0,0,0-3.6,3.67v2a3.55,3.55,0,0,0,1.09,2.62,3.51,3.51,0,0,0,2.51,1.06H85.8a3.5,3.5,0,0,0,2.54-1.06,3.58,3.58,0,0,0,1.08-2.62v-2a3.57,3.57,0,0,0-1.08-2.61,3.5,3.5,0,0,0-2.54-1.06ZM86,50.62a3.14,3.14,0,0,1-2.34,1H81.17a3.25,3.25,0,0,1-2.36-1,3.2,3.2,0,0,1-1-2.34h0a3.36,3.36,0,0,1,1-2.4,3.31,3.31,0,0,1,2.36-1h2.52a3.2,3.2,0,0,1,2.34,1,3.3,3.3,0,0,1,1,2.41,3.11,3.11,0,0,1-1,2.34Z" transform="translate(-0.04)"/><polygon class="cls-5" points="100.43 43.55 100.43 47.29 92.96 47.29 92.96 43.55 90.5 43.55 90.5 52.86 92.96 52.86 92.96 48.9 100.43 48.9 100.43 52.86 102.92 52.86 102.92 43.55 100.43 43.55 100.43 43.55"/><path class="cls-5" d="M73.81,43.55l-.54-.66a3.54,3.54,0,0,0-2.63-1.09H58.38a3.5,3.5,0,0,0-2.61,1.09l-.54.66-.07.12h0a3.64,3.64,0,0,0-.48,1.82v2.68a3.69,3.69,0,0,0,3.7,3.7h4.41v1h3v-1h4.88a3.64,3.64,0,0,0,3.69-3.7V45.49a3.75,3.75,0,0,0-.45-1.82l-.07-.12Zm-11,6.82H61.15a3.55,3.55,0,0,1-2.55-1.06,3.58,3.58,0,0,1,.94-5.76l.29-.14a3.24,3.24,0,0,1,1.32-.26h1.64v7.22Zm7.65-1.06a3.45,3.45,0,0,1-2.52,1.06H65.76V43.15h2.16l1.34.26.28.14a3.3,3.3,0,0,1,.9.67,3.58,3.58,0,0,1,0,5.09Z" transform="translate(-0.04)"/><path class="cls-5" d="M44.85,43.55H35.31a1.58,1.58,0,0,0-1.08.43,1.31,1.31,0,0,0-.42.79l0,.27v7.82h2.38l.1-7v-.15a.9.9,0,0,1,.31-.59l0-.05a.94.94,0,0,1,.67-.27h7.57V43.55Z" transform="translate(-0.04)"/><path class="cls-5" d="M50.14,43.93l-.46-.3a2.84,2.84,0,0,0-3.29.32l-5.65,8.91h2.75l1.31-2.24h6.87l1.26,2.24h3l-5.79-8.93ZM51,49.39H45.53l2.76-4.68L51,49.39Z" transform="translate(-0.04)"/><path class="cls-5" d="M50.32,33.54l1.18,0,1,0,2-.22a16.36,16.36,0,0,0,8.95-4.68,16.19,16.19,0,0,0,4.91-11.85A16.19,16.19,0,0,0,63.4,4.9,16.35,16.35,0,0,0,54.45.23V19H50.32V33.54Zm12.3-11.23a1.72,1.72,0,0,1,1.26-.52,1.78,1.78,0,0,1,1.79,1.79,1.79,1.79,0,0,1-3.05,1.26,1.71,1.71,0,0,1-.52-1.26,1.74,1.74,0,0,1,.52-1.27Zm-4.79,0a1.81,1.81,0,0,1,2.54,0,1.79,1.79,0,0,1-1.27,3.05,1.74,1.74,0,0,1-1.27-.52,1.71,1.71,0,0,1-.52-1.26,1.74,1.74,0,0,1,.52-1.27Zm-4.94,0a1.82,1.82,0,0,1,2.55,0,1.79,1.79,0,0,1-1.27,3.05,1.77,1.77,0,0,1-1.28-.52,1.8,1.8,0,0,1-.52-1.26,1.74,1.74,0,0,1,.52-1.27Z" transform="translate(-0.04)"/><path class="cls-5" d="M48.41,33.32V16.89h4.06V0l-1,0L50.32,0A16,16,0,0,0,39.6,4.9a16.19,16.19,0,0,0-4.91,11.89A16.15,16.15,0,0,0,39.6,28.64a16.17,16.17,0,0,0,8.81,4.68ZM47,11.14a1.82,1.82,0,0,1,2.55,0,1.8,1.8,0,1,1-2.55,0Z" transform="translate(-0.04)"/></g></g></g></g></svg>