<svg xmlns="http://www.w3.org/2000/svg" xmlns:xlink="http://www.w3.org/1999/xlink" viewBox="0 0 61.94 22.04"><defs><style>.cls-1,.cls-2{fill:none;}.cls-1{clip-rule:evenodd;}.cls-3{clip-path:url(#clip-path);}.cls-4{clip-path:url(#clip-path-2);}.cls-5{fill:#d8291e;}.cls-6{fill:#fff;}</style><clipPath id="clip-path" transform="translate(0 -0.08)"><polygon class="cls-1" points="0 22.2 61.95 22.2 61.95 0 0 0 0 22.2 0 22.2"/></clipPath><clipPath id="clip-path-2" transform="translate(0 -0.08)"><polygon class="cls-2" points="0 22.2 61.95 22.2 61.95 0 0 0 0 22.2 0 22.2"/></clipPath></defs><title>mts</title><g id="Layer_2" data-name="Layer 2"><g id="Warstwa_1" data-name="Warstwa 1"><g class="cls-3"><g class="cls-4"><path class="cls-5" d="M61.72,13.84a25,25,0,0,1-2.84.17c-1.86,0-2.22-.59-2.22-2V10.21c0-1.5.32-2.07,2.22-2.07a21.51,21.51,0,0,1,2.69.19l.2-2.7a27.56,27.56,0,0,0-3.15-.23c-3.87,0-5.28,1.26-5.28,4.34v2.68c0,3.4,1.71,4.35,5.26,4.35,1.43,0,3.34-.23,3.34-.23l-.22-2.7Z" transform="translate(0 -0.08)"/><polygon class="cls-5" points="42.35 8.3 45.56 8.3 45.56 16.53 48.9 16.53 48.9 8.3 52.1 8.3 52.29 5.51 42.16 5.51 42.35 8.3 42.35 8.3"/><polygon class="cls-5" points="35.55 15.42 37.33 11.2 37.53 11.2 37.89 16.53 41.12 16.53 40.38 5.51 37.26 5.51 34.58 11.77 34.39 11.77 31.59 5.51 28.52 5.51 27.78 16.53 30.92 16.53 31.25 11.2 31.44 11.2 33.43 15.42 35.55 15.42 35.55 15.42"/><path class="cls-5" d="M22.22,19.91A2.21,2.21,0,0,1,20,22.12H2.22A2.22,2.22,0,0,1,0,19.91V2.28A2.21,2.21,0,0,1,2.22.08H20a2.2,2.2,0,0,1,2.22,2.2V19.91Zm-11.11-.65c4.16,0,6-3.28,6-6.53,0-4.58-3.21-9.8-6-9.8s-6,5.22-6,9.8c0,3.25,1.86,6.53,6,6.53" transform="translate(0 -0.08)"/><path class="cls-6" d="M17.12,12.72c0-4.58-3.2-9.8-6-9.8s-6,5.22-6,9.8c0,3.25,1.85,6.53,6,6.53s6-3.28,6-6.53Z" transform="translate(0 -0.08)"/></g></g></g></g></svg>