<svg xmlns="http://www.w3.org/2000/svg" xmlns:xlink="http://www.w3.org/1999/xlink" viewBox="0 0 115.74 20.87"><defs><style>.cls-1,.cls-2{fill:none;}.cls-1{clip-rule:evenodd;}.cls-3{clip-path:url(#clip-path);}.cls-4{clip-path:url(#clip-path-2);}.cls-5{fill:#4c2887;}.cls-6{fill:#ff0098;}</style><clipPath id="clip-path" transform="translate(-0.13)"><polygon class="cls-1" points="0 20.87 116 20.87 116 0 0 0 0 20.87 0 20.87"/></clipPath><clipPath id="clip-path-2" transform="translate(-0.13)"><polygon class="cls-2" points="0 20.87 116 20.87 116 0 0 0 0 20.87 0 20.87"/></clipPath></defs><title>svyaznoy</title><g id="Layer_2" data-name="Layer 2"><g id="Layer_1-2" data-name="Layer 1"><g class="cls-3"><g class="cls-4"><path class="cls-5" d="M11.69,0l1.12.16a8.37,8.37,0,0,1,3.5,1.37.35.35,0,0,1,.17.23c0,1.24,0,2.48,0,3.75l-.22-.11a10.15,10.15,0,0,0-6.15-1.54,6.37,6.37,0,0,0-6,5.7A6.54,6.54,0,0,0,5.81,15a6.23,6.23,0,0,0,3.64,1.91,10.12,10.12,0,0,0,6.7-1.38l.33-.19c0,.11,0,.18,0,.26,0,1.12,0,2.24,0,3.36a.41.41,0,0,1-.22.39,8.67,8.67,0,0,1-4,1.41A11.24,11.24,0,0,1,6.31,20a9.8,9.8,0,0,1-6-7.89A10.21,10.21,0,0,1,8.09.33C8.67.19,9.27.14,9.86.05l.19,0Z" transform="translate(-0.13)"/><path class="cls-5" d="M115.87,20.57h-3.33v-9.7l-.07,0-.17.24-6.2,9.27a.41.41,0,0,1-.37.2h-3.09V5.44h3.26v9.68l.07,0,.8-1.19,5.56-8.33a.41.41,0,0,1,.39-.2h3.15V20.57Z" transform="translate(-0.13)"/><path class="cls-5" d="M20.5,5.42h.26c2.74,0,5.48,0,8.22,0a4,4,0,0,1,3.58,2,3.75,3.75,0,0,1-.9,5.11l0,0a7.94,7.94,0,0,1,.85.78,4.24,4.24,0,0,1,.81,4.49,4,4,0,0,1-3.53,2.68,5.56,5.56,0,0,1-.82,0H20.5V5.42Zm5.82,8.89v0H24.17c-.35,0-.35,0-.35.35v2.63c0,.35,0,.35.33.35h4.19a3.88,3.88,0,0,0,.48,0A1.6,1.6,0,0,0,30.23,16a1.55,1.55,0,0,0-1.41-1.63c-.83-.06-1.67,0-2.5,0Zm-2.48-3h4.5a1.47,1.47,0,1,0,0-2.93H24.06c-.2,0-.25.07-.25.26,0,.82,0,1.63,0,2.45,0,.06,0,.13,0,.23Z" transform="translate(-0.13)"/><path class="cls-5" d="M36.18,20.56l4-4.95-.34-.14a4.88,4.88,0,0,1-3.28-4.26A5.07,5.07,0,0,1,40.79,5.5a4.66,4.66,0,0,1,.76-.08h8V20.54h-3.3V15.81c-.62,0-1.21,0-1.8,0-.08,0-.17.1-.23.17q-1.74,2.11-3.47,4.24a.78.78,0,0,1-.7.34c-1.2,0-2.39,0-3.58,0ZM44,12.82h2c.22,0,.28-.06.28-.28q0-2,0-3.9c0-.24-.09-.29-.3-.29H42.27a3.88,3.88,0,0,0-.48,0,2.22,2.22,0,0,0,.2,4.4c.66,0,1.33,0,2,0Z" transform="translate(-0.13)"/><path class="cls-5" d="M92.37,5.11a7.79,7.79,0,0,1,7.32,6.14A7.89,7.89,0,1,1,89.28,5.58a8.37,8.37,0,0,1,3.09-.47ZM87.45,13A4.6,4.6,0,0,0,92,17.66a4.67,4.67,0,0,0,0-9.34A4.58,4.58,0,0,0,87.45,13Z" transform="translate(-0.13)"/><path class="cls-5" d="M78,5.43h3.32V20.54H78V14.43H71.45v6.11H68.14V5.44h3.31v.31c0,1.8,0,3.59,0,5.39,0,.25.08.32.32.32,2,0,4,0,6,0,.24,0,.31-.07.31-.32,0-1.8,0-3.59,0-5.39V5.43Z" transform="translate(-0.13)"/><path class="cls-5" d="M56,14.26V11.32h2.7A3.44,3.44,0,0,0,60.18,11,1.22,1.22,0,0,0,61,9.9a1.24,1.24,0,0,0-.78-1.18,4.37,4.37,0,0,0-1.81-.39,10,10,0,0,0-4.78,1l-.3.13a2.32,2.32,0,0,1,0-.24V6.49c0-.15,0-.26.18-.32a10.75,10.75,0,0,1,7.25-.74A5.3,5.3,0,0,1,63.44,7a3.57,3.57,0,0,1-.79,5.4l-.06.05a13.48,13.48,0,0,1,1.14,1,4.06,4.06,0,0,1-.28,5.62A6.4,6.4,0,0,1,60,20.7a11.43,11.43,0,0,1-6.65-.81.59.59,0,0,1-.42-.67c0-.94,0-1.89,0-2.87l.71.34a9.45,9.45,0,0,0,4.4,1,5.91,5.91,0,0,0,2.19-.45,1.87,1.87,0,0,0,.95-.87,1.2,1.2,0,0,0-.42-1.56,2.76,2.76,0,0,0-1.47-.45c-1,0-2,0-2.94-.06Z" transform="translate(-0.13)"/><path class="cls-6" d="M104.23.6l2.46-.32c.15,0,.19,0,.21.18a2,2,0,0,0,2,1.62A2.05,2.05,0,0,0,111,.77a.07.07,0,0,1,0-.05c.13-.43.13-.44.59-.39s.71.09,1.06.14l1.08.13a4.17,4.17,0,0,1-1,2.43,4.6,4.6,0,0,1-3,1.49A5.36,5.36,0,0,1,106.57,4,4.19,4.19,0,0,1,104.23.6Z" transform="translate(-0.13)"/></g></g></g></g></svg>