<svg xmlns="http://www.w3.org/2000/svg" xmlns:xlink="http://www.w3.org/1999/xlink" viewBox="0 0 97.36 35.66"><defs><style>.cls-1,.cls-2{fill:none;}.cls-1{clip-rule:evenodd;}.cls-3{clip-path:url(#clip-path);}.cls-4{clip-path:url(#clip-path-2);}.cls-5{fill:#131313;}</style><clipPath id="clip-path" transform="translate(-0.32)"><polygon class="cls-1" points="0 35.66 98 35.66 98 0 0 0 0 35.66 0 35.66"/></clipPath><clipPath id="clip-path-2" transform="translate(-0.32)"><polygon class="cls-2" points="0 35.66 98 35.66 98 0 0 0 0 35.66 0 35.66"/></clipPath></defs><title>tele2</title><g id="Layer_2" data-name="Layer 2"><g id="Layer_1-2" data-name="Layer 1"><g class="cls-3"><g class="cls-4"><polygon class="cls-5" points="0 17.71 14.29 16.18 14.29 10.61 0 12.56 0 17.71 0 17.71"/><polygon class="cls-5" points="4.56 35.66 9.79 35.66 9.79 17.5 4.56 18.02 4.56 35.66 4.56 35.66"/><polygon class="cls-5" points="16.22 35.66 21.74 35.66 21.74 9.59 16.22 10.34 16.22 35.66 16.22 35.66"/><polygon class="cls-5" points="22.77 15.28 30.73 14.42 30.73 8.36 22.77 9.45 22.77 15.28 22.77 15.28"/><polygon class="cls-5" points="27.99 19.17 22.77 19.61 22.77 25.54 27.99 25.26 27.99 19.17 27.99 19.17"/><polygon class="cls-5" points="22.77 35.66 30.73 35.66 30.73 29.58 22.77 29.82 22.77 35.66 22.77 35.66"/><polygon class="cls-5" points="51.32 35.66 58.54 35.66 58.54 4.55 51.32 5.54 51.32 35.66 51.32 35.66"/><polygon class="cls-5" points="59.9 11.3 70.43 10.18 70.43 2.93 59.9 4.37 59.9 11.3 59.9 11.3"/><polygon class="cls-5" points="66.8 15.94 59.9 16.51 59.9 23.57 66.8 23.2 66.8 15.94 66.8 15.94"/><polygon class="cls-5" points="59.9 35.66 70.43 35.66 70.43 28.42 59.9 28.73 59.9 35.66 59.9 35.66"/><polygon class="cls-5" points="32.83 35.66 39.11 35.66 39.11 7.22 32.83 8.08 32.83 35.66 32.83 35.66"/><polygon class="cls-5" points="40.29 35.66 49.4 35.66 49.4 29.03 40.29 29.3 40.29 35.66 40.29 35.66"/><path class="cls-5" d="M88.29,9.36c.85,1.7,0,4.25-2.09,6.61C83,19.61,74.58,27.07,74.58,27.07l12.13-.39c7.41-7,10.07-11.3,10.55-16.63a9,9,0,0,0-2.9-7.46A11.21,11.21,0,0,0,85.07.14V7.83a3.19,3.19,0,0,1,3.22,1.53Z" transform="translate(-0.32)"/><polygon class="cls-5" points="72.76 28.34 72.77 35.66 97.36 35.66 97.36 27.62 72.76 28.34 72.76 28.34"/><path class="cls-5" d="M81,14.59c-.34-4.71,1.14-5.83,2.64-6.45V.32C76.51,1.79,73,6.9,73.4,15.24L81,14.59Z" transform="translate(-0.32)"/></g></g></g></g></svg>