<svg xmlns="http://www.w3.org/2000/svg" xmlns:xlink="http://www.w3.org/1999/xlink" viewBox="0 0 84.25 76.81"><defs><style>.cls-1{fill:none;}.cls-2{fill:#e40521;}.cls-3{clip-path:url(#clip-path);}.cls-4{fill:url(#linear-gradient);}.cls-5{clip-path:url(#clip-path-2);}.cls-6{fill:url(#linear-gradient-2);}.cls-7{clip-path:url(#clip-path-3);}.cls-8{fill:url(#linear-gradient-3);}.cls-9{clip-path:url(#clip-path-4);}.cls-10{fill:url(#linear-gradient-4);}</style><clipPath id="clip-path"><path class="cls-1" d="M50.83,35.61a9.52,9.52,0,1,1,9.52,9.51,9.51,9.51,0,0,1-9.52-9.51m-14.4,0A23.91,23.91,0,1,0,60.35,11.7,23.91,23.91,0,0,0,36.43,35.61"/></clipPath><linearGradient id="linear-gradient" x1="-100.36" y1="481.42" x2="-99.84" y2="481.42" gradientTransform="matrix(-45.5, 0, 0, 45.5, -4482.03, -21868.31)" gradientUnits="userSpaceOnUse"><stop offset="0" stop-color="#e84e0f"/><stop offset="0.18" stop-color="#e74014"/><stop offset="1" stop-color="#e40428"/></linearGradient><clipPath id="clip-path-2"><path class="cls-1" d="M57.9,11.82a23.92,23.92,0,0,0,2.45,47.71h0V45.12a9.51,9.51,0,0,1-2.24-18.76,9.67,9.67,0,0,1,2.24-.26V11.7c-.83,0-1.65,0-2.45.12"/></clipPath><linearGradient id="linear-gradient-2" x1="-100.75" y1="481.02" x2="-100.24" y2="481.02" gradientTransform="matrix(0, -61.64, -61.64, 0, 29697.64, -6148.72)" gradientUnits="userSpaceOnUse"><stop offset="0" stop-color="#e30613"/><stop offset="0.12" stop-color="#e30613"/><stop offset="0.43" stop-color="#e30613"/><stop offset="0.53" stop-color="#da0a15"/><stop offset="0.69" stop-color="#c3141b"/><stop offset="0.89" stop-color="#9d2424"/><stop offset="0.94" stop-color="#932826"/><stop offset="1" stop-color="#932826"/></linearGradient><clipPath id="clip-path-3"><path class="cls-1" d="M22.05,12.69a.81.81,0,0,0-.8.8V58.54l.07,0H35a.76.76,0,0,0,.81-.75V13.49a.8.8,0,0,0-.81-.8Z"/></clipPath><linearGradient id="linear-gradient-3" x1="-100.37" y1="481.03" x2="-99.85" y2="481.03" gradientTransform="matrix(0, 63.2, 63.2, 0, -30371.18, 6356.63)" gradientUnits="userSpaceOnUse"><stop offset="0" stop-color="#e94e24"/><stop offset="0.09" stop-color="#e94924"/><stop offset="0.2" stop-color="#e83a25"/><stop offset="0.33" stop-color="#e62226"/><stop offset="0.44" stop-color="#e40428"/><stop offset="0.61" stop-color="#cf0d27"/><stop offset="0.96" stop-color="#9a2526"/><stop offset="1" stop-color="#932826"/></linearGradient><clipPath id="clip-path-4"><path class="cls-1" d="M60.25,11.7a26.33,26.33,0,0,0-9.12,1.68,30.39,30.39,0,0,0-7.77,4.32A48.14,48.14,0,0,0,31.94,30.62c-6,9.53-9.28,20.6-10.69,27.92H35.09a.67.67,0,0,0,.74-.6,72.47,72.47,0,0,1,8.3-19.65A34.12,34.12,0,0,1,52,29.19a13.57,13.57,0,0,1,8.29-3.09h.42a9.54,9.54,0,0,1,9.11,9.51H84.25A23.93,23.93,0,0,0,60.75,11.7h-.5Z"/></clipPath><linearGradient id="linear-gradient-4" x1="-100.76" y1="480.53" x2="-100.24" y2="480.53" gradientTransform="matrix(121.87, 0, 0, -121.87, 12300.79, 58596.91)" gradientUnits="userSpaceOnUse"><stop offset="0" stop-color="#ea560d"/><stop offset="0.62" stop-color="#e40428"/><stop offset="0.8" stop-color="#e6251d"/><stop offset="1" stop-color="#e84e0f"/></linearGradient></defs><title>ulmart</title><g id="Layer_2" data-name="Layer 2"><g id="Layer_1-2" data-name="Layer 1"><path class="cls-2" d="M43.53,76.34l-3.15-9.45c-.2-.64-.4-.84-1-.84H38.16c-.55,0-.75.2-.95.84s-3.09,9.27-3.15,9.45a.22.22,0,0,0,.21.31H36a.4.4,0,0,0,.42-.29l1.71-5.72.58-2.17h.09l.57,2.17s1.66,5.51,1.72,5.72a.4.4,0,0,0,.42.29h1.77a.22.22,0,0,0,.21-.31"/><path class="cls-2" d="M83.82,68H81.17v8.32a.28.28,0,0,1-.31.31H79.14a.28.28,0,0,1-.3-.31V68H76.26a.27.27,0,0,1-.3-.3V66.36a.28.28,0,0,1,.31-.31h7.55a.28.28,0,0,1,.29.31v1.36a.27.27,0,0,1-.29.3"/><path class="cls-2" d="M54.75,66.05h-1a.92.92,0,0,0-1,.63l-1.69,3.76-.94,2.15h-.06l-.94-2.15-1.69-3.76a.92.92,0,0,0-1-.63h-1c-.63,0-.85.22-.85.84v9.45a.28.28,0,0,0,.31.31h1.63a.28.28,0,0,0,.3-.31V70.73h.09l.94,2,1,2.1c.19.41.3.53.73.53h1c.44,0,.55-.12.74-.53l1-2.1.94-2h.09v5.61a.28.28,0,0,0,.3.31h1.64a.28.28,0,0,0,.3-.31V66.89c0-.62-.22-.84-.84-.84"/><path class="cls-2" d="M66.27,76.34c-.06-.18-2.95-8.82-3.15-9.45s-.4-.84-.95-.84H60.9c-.56,0-.76.2-1,.84l-3.15,9.45a.22.22,0,0,0,.21.31h1.77a.41.41,0,0,0,.43-.29s.27-.94.6-2h3.46l.6,2a.41.41,0,0,0,.42.29h1.78a.22.22,0,0,0,.21-.31m-5.89-3.92c.29-1,.53-1.78.53-1.78l.58-2.17h.08l.59,2.17.52,1.78Z"/><path class="cls-2" d="M75.49,69.81h0a3.65,3.65,0,0,0-.88-2.71,3.52,3.52,0,0,0-2.6-1H68.32c-.56,0-.84.16-.84.84v9.45a.29.29,0,0,0,.31.31h1.69a.28.28,0,0,0,.3-.31V73.56H72a3.56,3.56,0,0,0,2.6-1,3.65,3.65,0,0,0,.88-2.71ZM71.6,71.63H69.78V68H71.6c1.22,0,1.6.92,1.6,1.83s-.38,1.82-1.6,1.82"/><path class="cls-2" d="M33.67,71.35h0c0-2.25-.27-3.27-.88-4.06a4,4,0,0,0-3.38-1.4A4,4,0,0,0,26,67.29a4.83,4.83,0,0,0-.85,2.87H23.6v-3.8a.27.27,0,0,0-.3-.3H21.61a.28.28,0,0,0-.31.3v10a.28.28,0,0,0,.31.3H23.3a.27.27,0,0,0,.3-.3v-4.2h1.55A5.18,5.18,0,0,0,26,75.4a4,4,0,0,0,3.39,1.41,3.94,3.94,0,0,0,3.38-1.41c.61-.77.88-1.8.88-4Zm-2.53,2.33a1.69,1.69,0,0,1-1.73,1.06,1.71,1.71,0,0,1-1.74-1.06,10.57,10.57,0,0,1,0-4.66A1.71,1.71,0,0,1,29.41,68,1.69,1.69,0,0,1,31.14,69a10.19,10.19,0,0,1,0,4.66"/><g class="cls-3"><rect class="cls-4" x="36.43" y="11.7" width="47.82" height="47.83"/></g><g class="cls-5"><rect class="cls-6" x="24.04" y="9.5" width="48.69" height="52.22" transform="translate(-11.63 38.39) rotate(-39)"/></g><g class="cls-7"><rect class="cls-8" x="9.68" y="12.53" width="37.73" height="46.17" transform="translate(-15.03 22.05) rotate(-34)"/></g><g class="cls-9"><rect class="cls-10" x="21.25" y="11.7" width="63" height="46.84"/></g></g></g></svg>