<svg xmlns="http://www.w3.org/2000/svg" viewBox="0 0 30 30"><defs><style>.cls-1{fill:#ff293e;}.cls-2{fill:#fff;}</style></defs><title>Asset 1</title><g id="Layer_2" data-name="Layer 2"><g id="Layer_1-2" data-name="Layer 1"><path class="cls-1" d="M15,0A15,15,0,1,0,30,15,15,15,0,0,0,15,0Z"/><path class="cls-2" d="M12.71,19.5a.82.82,0,0,1-.45.41,1.91,1.91,0,0,1-.33.06.62.62,0,0,1-.34-.09L7.65,17.44l1.07,3a.75.75,0,0,1,0,.57.77.77,0,0,1-1,.36.75.75,0,0,1-.37-.43L5.55,16a.76.76,0,0,1,0-.61A.74.74,0,0,1,6,15a1,1,0,0,1,.36-.06.76.76,0,0,1,.35.11l3.92,2.44-1.09-3a.75.75,0,0,1,0-.57.71.71,0,0,1,.43-.38.68.68,0,0,1,.56,0,.7.7,0,0,1,.37.42l1.8,4.93A.85.85,0,0,1,12.71,19.5Z"/><path class="cls-2" d="M17.73,17.69a.82.82,0,0,1-.45.39l-2.84,1a.74.74,0,0,1-.6,0,.76.76,0,0,1-.41-.45l-1.78-4.89a.76.76,0,0,1,0-.61.77.77,0,0,1,.45-.4l2.84-1a.8.8,0,0,1,.59,0,.76.76,0,0,1,.41.45.71.71,0,0,1,0,.59.84.84,0,0,1-.46.38l-2.06.75.36,1,1.68-.62a.78.78,0,0,1,.6,0,.74.74,0,0,1,.41.44.75.75,0,0,1,0,.59.88.88,0,0,1-.46.38l-1.69.61.41,1.12,2.07-.76a.78.78,0,0,1,.6,0,.74.74,0,0,1,.37,1Z"/><path class="cls-2" d="M24.36,15.35a.82.82,0,0,1-.34.27h0a.83.83,0,0,1-.87-.2l-1.83-1.91-.18,2.63a.75.75,0,0,1-.17.45.78.78,0,0,1-.36.27h0a.82.82,0,0,1-.44,0,.69.69,0,0,1-.38-.25L16.3,12.33h0a1.64,1.64,0,0,1-.12-.22.78.78,0,0,1,0-.65.8.8,0,0,1,.46-.41.75.75,0,0,1,.47,0,.7.7,0,0,1,.41.26l2.25,2.86.11-2.4a.83.83,0,0,1,.15-.44.71.71,0,0,1,.35-.26h0a.74.74,0,0,1,.44,0,.82.82,0,0,1,.38.24L22.85,13l-.11-3.6a.75.75,0,0,1,.15-.46.84.84,0,0,1,1-.26.77.77,0,0,1,.45.47.6.6,0,0,1,.05.24v0l.11,5.51A.65.65,0,0,1,24.36,15.35Z"/></g></g></svg>