<svg xmlns="http://www.w3.org/2000/svg" viewBox="0 0 30 29.54"><defs><style>.cls-1{fill:#0af;}.cls-2{fill:#fff;}</style></defs><title>Asset 2</title><g id="Layer_2" data-name="Layer 2"><g id="Layer_3" data-name="Layer 3"><path class="cls-1" d="M30,14.77l-1.71-2.34.81-2.79L26.69,8l-.2-2.89-2.81-.7L22.5,1.78l-2.88.31L17.6,0,15,1.27,12.4,0l-2,2.09L7.5,1.78,6.32,4.43l-2.81.7L3.31,8,.9,9.64l.81,2.79L0,14.77l1.71,2.35L.9,19.9l2.41,1.62.2,2.89,2.81.7L7.5,27.76l2.88-.3,2,2.08L15,28.27l2.6,1.27,2-2.08,2.88.3,1.18-2.65,2.81-.7.2-2.89L29.1,19.9l-.81-2.78Z"/><path class="cls-2" d="M21.74,11.39h-3a4.43,4.43,0,0,0,.53-.43,2,2,0,0,0,0-2.84,2,2,0,0,0-2.82,0A5.32,5.32,0,0,0,15,11.39H15a5.32,5.32,0,0,0-1.38-3.27,2,2,0,0,0-2.82,0,2,2,0,0,0,0,2.84,3.75,3.75,0,0,0,.53.43H8.25a1,1,0,0,0-1,1v2.41a.48.48,0,0,0,.48.48h.48V21a1,1,0,0,0,1,1H20.78a1,1,0,0,0,1-1V15.24h.49a.48.48,0,0,0,.48-.48V12.35A1,1,0,0,0,21.74,11.39ZM11.45,8.8a1,1,0,0,1,.73-.3,1.06,1.06,0,0,1,.73.3c.65.66,1.29,2.33,1.07,2.56a.34.34,0,0,1-.18,0,4.72,4.72,0,0,1-2.35-1.11A1.06,1.06,0,0,1,11.45,8.8ZM14.52,21H9.22V15.24h5.3Zm0-6.75H8.25V12.35h6.27ZM17.09,8.8a1,1,0,1,1,1.46,1.48,4.72,4.72,0,0,1-2.35,1.11.34.34,0,0,1-.18,0C15.8,11.13,16.44,9.46,17.09,8.8ZM20.78,21h-5.3V15.24h5.3Zm1-6.75H15.48V12.35h6.26Z"/></g></g></svg>