<svg xmlns="http://www.w3.org/2000/svg" viewBox="0 0 512.4 375.9"><defs><style>.cls-1{fill:#526380;}</style></defs><title>people</title><g id="Layer_2" data-name="Layer 2"><g id="Layer_1-2" data-name="Layer 1"><path class="cls-1" d="M451.7,169.2c-17.4-8.7-50.1-8.8-51.5-8.8a7.5,7.5,0,0,0,0,15c8.4,0,32.9,1.3,44.8,7.2a8,8,0,0,0,3.3.8,7.5,7.5,0,0,0,3.4-14.2Z"/><path class="cls-1" d="M489.1,275.9l-31-8.9a3.21,3.21,0,0,1-2.3-3V253.7a56.33,56.33,0,0,0,7.2-5.9,55.12,55.12,0,0,0,16.9-39.9V193.6l3-6a47.63,47.63,0,0,0,5-21.3V127.7a7.55,7.55,0,0,0-7.5-7.5H408.2a47.71,47.71,0,0,0-47.6,47.6v.4a39.07,39.07,0,0,0,4.2,17.7l3.8,7.7v12.3a58.55,58.55,0,0,0,24.1,47.3V264c0,1.7,0,2.4-6.2,4.1l-15.1,4.3-43.7-15.9a7.09,7.09,0,0,0-2-5.7l-14-14.7V211.5c1.5-1.2,2.9-2.5,4.3-3.8a88,88,0,0,0,27.7-64V124a87,87,0,0,0,8-36.5V7.5A7.55,7.55,0,0,0,344.2,0H232a71.76,71.76,0,0,0-71.7,71.7v16a87.34,87.34,0,0,0,8,36.5v16.9A91.58,91.58,0,0,0,200.4,211v25.2l-14,14.7a7.33,7.33,0,0,0-2,5.7l-46.1,16.8a39.32,39.32,0,0,0-9.3,4.9l-7.2-3.6c21.6-9.4,28.4-22.6,28.7-23.3a7.21,7.21,0,0,0,0-6.7c-5.4-10.8-6.1-30.6-6.6-46.6-.2-5.3-.3-10.3-.7-14.8-2.6-36-29.9-63.1-63.6-63.1S18.5,147.3,16,183.3c-.3,4.5-.5,9.5-.7,14.8-.5,15.9-1.2,35.7-6.6,46.6a7.21,7.21,0,0,0,0,6.7c.3.7,7.1,13.8,28.8,23.2L17.4,284.7A31.47,31.47,0,0,0,0,312.9v55.4a7.55,7.55,0,0,0,7.5,7.5,7.55,7.55,0,0,0,7.5-7.5V312.9a16.39,16.39,0,0,1,9.2-14.8l25.1-12.5,8.7,8.3a31.41,31.41,0,0,0,43.4,0l8.7-8.3,8.2,4.1a40,40,0,0,0-6,20.9v57.7a7.5,7.5,0,0,0,15,0V310.6a24.62,24.62,0,0,1,16.2-23.1l48.7-17.7,20.3,30.4a15.15,15.15,0,0,0,11.4,6.8,7.57,7.57,0,0,0,1.5.1,15.77,15.77,0,0,0,11-4.5l12.4-12.4v78.1a7.5,7.5,0,0,0,15,0V290.2l12.4,12.4a15.59,15.59,0,0,0,11,4.5,7.57,7.57,0,0,0,1.5-.1,15.94,15.94,0,0,0,11.4-6.8l20.3-30.4,48.7,17.7a24.62,24.62,0,0,1,16.2,23.1v57.7a7.5,7.5,0,0,0,15,0V310.6a39.33,39.33,0,0,0-11.1-27.4l1.9-.5a43.18,43.18,0,0,0,7-2.5l19.1,19.1v69.1a7.5,7.5,0,0,0,15,0V299.3l19-19a30.54,30.54,0,0,0,3.2,1.3l31,8.9a16.59,16.59,0,0,1,12,15.9v62a7.5,7.5,0,0,0,15,0v-62A32.69,32.69,0,0,0,489.1,275.9Zm-441-13.2c-14-5-21.1-11.8-24.1-15.5a86.28,86.28,0,0,0,4.3-18,55.72,55.72,0,0,0,19.8,24.4Zm43,20.3a16.49,16.49,0,0,1-22.8,0l-7-6.6a15.18,15.18,0,0,0,1.8-7.3v-8a56.36,56.36,0,0,0,33.2,0v8a15.18,15.18,0,0,0,1.8,7.3ZM79.7,248.6A40.63,40.63,0,0,1,39.1,208a7.55,7.55,0,0,0-7.5-7.5,4.87,4.87,0,0,0-1.2.1,12.1,12.1,0,0,1,.1-1.9c.2-5.2.3-10,.6-14.2,1-13.5,6.3-25.9,15.2-35a46.62,46.62,0,0,1,67,0,56.14,56.14,0,0,1,15.2,35c.3,4.2.5,9,.6,14.2V200c-8.2-12.6-20.8-21.8-37-27.1a95.36,95.36,0,0,0-28.5-4.5,7.8,7.8,0,0,0-5.2,2.3l-13.5,14a7.5,7.5,0,0,0,10.8,10.4L67,183.4c9.7.5,40.9,4.1,53,30.8A41,41,0,0,1,79.7,248.6Zm31.5,14.1v-8.9A55.72,55.72,0,0,0,131,229.4a78.23,78.23,0,0,0,4.3,17.9C132.3,250.9,125.2,257.7,111.2,262.7ZM183.4,141V122.4a9.76,9.76,0,0,0-.7-3.3,72.34,72.34,0,0,1-7.3-31.5v-16a56.78,56.78,0,0,1,56.7-56.7H336.9V87.6a71,71,0,0,1-7.3,31.5,7.25,7.25,0,0,0-.7,3.3v21.4a72,72,0,0,1-23,53c-1.9,1.7-3.8,3.4-5.8,4.9l-.1.1a72.13,72.13,0,0,1-48.7,14.5C213.2,213.9,183.4,180.8,183.4,141Zm42.2,151c-.1.1-.2.2-.4.1s-.3-.2-.4-.2l-23.3-35L209,249l35.4,24.2Zm30.5-29-40.6-27.8v-14a84,84,0,0,0,34.8,10c2,.1,3.9.2,5.9.2a86.91,86.91,0,0,0,40.5-9.9v13.7Zm31.3,28.9c0,.1-.1.2-.4.2a1,1,0,0,1-.4-.1l-18.8-18.8L303.2,249l7.5,7.9Zm136.9-6.4-17-17a20,20,0,0,0,.5-4.5v-3.2a52.32,52.32,0,0,0,14.9,2.6h1.7a56.85,56.85,0,0,0,16.5-2.5v3a21.18,21.18,0,0,0,.5,4.4Zm28.3-48.4a40.07,40.07,0,0,1-29.5,11.4c-21.7-.7-39.4-19.8-39.4-42.6v-14a8.08,8.08,0,0,0-.8-3.4l-4.6-9.3a24.71,24.71,0,0,1-2.6-11v-.3a32.61,32.61,0,0,1,32.6-32.6H473v31.1a33.63,33.63,0,0,1-3.4,14.6l-3.8,7.6a7.73,7.73,0,0,0-.8,3.4v16A41,41,0,0,1,452.6,237.1Z"/><path class="cls-1" d="M472.4,312.7a7.55,7.55,0,0,0-7.5,7.5v48.1a7.5,7.5,0,1,0,15,0V320.2A7.49,7.49,0,0,0,472.4,312.7Z"/><path class="cls-1" d="M39.6,322.6a7.55,7.55,0,0,0-7.5,7.5v38.2a7.5,7.5,0,0,0,15,0V330.1A7.55,7.55,0,0,0,39.6,322.6Z"/><path class="cls-1" d="M317.5,90.4C289.1,62,229.8,67.5,205.6,71.1a15.41,15.41,0,0,0-13.2,15.3v17.3a7.5,7.5,0,1,0,15,0V86.4a.46.46,0,0,1,.4-.5,235.61,235.61,0,0,1,48.7-2.4c23.4,1.6,40.3,7.4,50.3,17.4a7.54,7.54,0,0,0,10.6,0A7.17,7.17,0,0,0,317.5,90.4Z"/><path class="cls-1" d="M167.9,328.8a7.55,7.55,0,0,0-7.5,7.5v32.1a7.5,7.5,0,0,0,15,0V336.3A7.49,7.49,0,0,0,167.9,328.8Z"/><path class="cls-1" d="M344.3,328.8a7.55,7.55,0,0,0-7.5,7.5v32.1a7.5,7.5,0,0,0,15,0V336.3A7.49,7.49,0,0,0,344.3,328.8Z"/></g></g></svg>