<svg xmlns="http://www.w3.org/2000/svg" viewBox="0 0 30 30.62"><defs><style>.cls-1{fill:#afd805;}.cls-2{fill:#fff;}</style></defs><title>Asset 2</title><g id="Layer_2" data-name="Layer 2"><g id="Layer_2-2" data-name="Layer 2"><path class="cls-1" d="M29.61,17l-.46-.63a2,2,0,0,1,0-2.33l.45-.64a2,2,0,0,0-.69-2.91l-.69-.37a2,2,0,0,1-1-2.09l.13-.77a2,2,0,0,0-1.88-2.32l-.78,0a2,2,0,0,1-1.84-1.43l-.22-.76a2,2,0,0,0-2.7-1.27l-.72.31a2,2,0,0,1-2.27-.5L16.38.66a2,2,0,0,0-3,0l-.51.59a2,2,0,0,1-2.27.53l-.73-.3A2,2,0,0,0,7.2,2.83L7,3.59A2,2,0,0,1,5.18,5.05l-.78,0A2,2,0,0,0,2.56,7.44l.14.78a2,2,0,0,1-1,2.1L1,10.7a2,2,0,0,0-.64,2.92l.46.63a2,2,0,0,1,0,2.33l-.45.64a2,2,0,0,0,.69,2.91l.69.37a2,2,0,0,1,1,2.09l-.13.77a2,2,0,0,0,1.88,2.32l.78,0a2,2,0,0,1,1.84,1.44l.22.75a2,2,0,0,0,2.7,1.28l.72-.31a2,2,0,0,1,2.27.5l.52.58a2,2,0,0,0,3,0l.51-.59a2,2,0,0,1,2.27-.53l.73.3a2,2,0,0,0,2.68-1.32L23,27a2,2,0,0,1,1.81-1.46l.78,0a2,2,0,0,0,1.84-2.36l-.14-.77a2,2,0,0,1,1-2.1l.68-.38A2,2,0,0,0,29.61,17Z"/><path class="cls-2" d="M14,12.71a3.09,3.09,0,1,0-3.08,3.08A3.08,3.08,0,0,0,14,12.71Zm-4.36,0A1.28,1.28,0,1,1,10.93,14,1.28,1.28,0,0,1,9.65,12.71Z"/><path class="cls-2" d="M19.06,14.82a3.09,3.09,0,1,0,3.09,3.08A3.08,3.08,0,0,0,19.06,14.82Zm0,4.36a1.28,1.28,0,1,1,1.28-1.28A1.28,1.28,0,0,1,19.06,19.18Z"/><path class="cls-2" d="M19.52,9.85a.76.76,0,0,0-1.06.1l-8.1,9.76a.75.75,0,1,0,1.16,1l8.1-9.76A.76.76,0,0,0,19.52,9.85Z"/></g></g></svg>