<svg xmlns="http://www.w3.org/2000/svg" viewBox="0 0 512 512"><defs><style>.cls-1{fill:#526380;}</style></defs><title>stats</title><g id="Layer_2" data-name="Layer 2"><g id="Layer_1-2" data-name="Layer 1"><path class="cls-1" d="M503.47,494.93H460.8V230.4a8.52,8.52,0,0,0-8.53-8.53h-51.2a8.53,8.53,0,0,0-8.54,8.53V494.93H375.47V349.87a8.54,8.54,0,0,0-8.54-8.54H316.44a8.53,8.53,0,0,0-8.53,8.54V494.93H290.13V298.67a8.53,8.53,0,0,0-8.53-8.54H230.4a8.53,8.53,0,0,0-8.53,8.54V494.93H204.8V332.8a8.52,8.52,0,0,0-8.53-8.53h-51.2a8.53,8.53,0,0,0-8.54,8.53V494.93H119.47V401.07a8.54,8.54,0,0,0-8.54-8.54H59.73a8.53,8.53,0,0,0-8.53,8.54v93.86H8.53a8.54,8.54,0,0,0,0,17.07h51.2a8.53,8.53,0,0,0,8.54-8.53V409.6H102.4v93.87a8.52,8.52,0,0,0,8.53,8.53h34.14a8.53,8.53,0,0,0,8.53-8.53V341.33h34.13V503.47a8.53,8.53,0,0,0,8.53,8.53H230.4a8.52,8.52,0,0,0,8.53-8.53V307.2h34.14V503.47A8.52,8.52,0,0,0,281.6,512h34.84a8.52,8.52,0,0,0,8.53-8.53V358.4H358.4V503.47a8.52,8.52,0,0,0,8.53,8.53h34.14a8.53,8.53,0,0,0,8.53-8.53V238.93h34.13V503.47a8.53,8.53,0,0,0,8.53,8.53h51.2a8.54,8.54,0,0,0,0-17.07Z"/><path class="cls-1" d="M34.13,324.27a33.8,33.8,0,0,0,32-45.56L233.8,111.06a33.34,33.34,0,0,0,39.47,3.55l38.78,38.79a34.13,34.13,0,1,0,58.58,0l90-90a33.77,33.77,0,0,0,17.23,4.84,34.53,34.53,0,1,0-29.3-16.91l-90,90a33.06,33.06,0,0,0-34.41,0l-38.84-38.83a33.71,33.71,0,0,0,4.82-17.19A34.13,34.13,0,1,0,224,96.76L56.33,264.4a34.07,34.07,0,1,0-22.2,59.87ZM477.87,17.07a17.07,17.07,0,1,1-12,29.22s0-.09-.07-.12-.09-.05-.12-.08a17,17,0,0,1,12.15-29ZM341.33,153.6a17.07,17.07,0,1,1-17.06,17.07A17.09,17.09,0,0,1,341.33,153.6ZM256,68.27a17.07,17.07,0,1,1-17.07,17.06A17.08,17.08,0,0,1,256,68.27ZM34.13,273.07a17.07,17.07,0,1,1-17.06,17.06A17.08,17.08,0,0,1,34.13,273.07Z"/></g></g></svg>