<svg xmlns="http://www.w3.org/2000/svg" viewBox="0 0 480 408"><defs><style>.cls-1{fill:#526380;}</style></defs><title>truck</title><g id="Layer_2" data-name="Layer 2"><g id="Layer_1-2" data-name="Layer 1"><path class="cls-1" d="M200,328a24,24,0,1,0,24,24A24,24,0,0,0,200,328Zm0,32a8,8,0,1,1,8-8A8,8,0,0,1,200,360Z"/><path class="cls-1" d="M392,328a24,24,0,1,0,24,24A24,24,0,0,0,392,328Zm0,32a8,8,0,1,1,8-8A8,8,0,0,1,392,360Z"/><path class="cls-1" d="M8,376H120v24a8,8,0,0,0,8,8h32a8,8,0,0,0,8-8v-2.11A55.82,55.82,0,0,0,245.89,384H346.11a55.87,55.87,0,0,0,91.78,0H472a8,8,0,0,0,8-8V248a40.05,40.05,0,0,0-40-40H424V78a23.08,23.08,0,0,0-24-22H291.32a39.88,39.88,0,0,0-35.39,21.37l-71,134.9A8.07,8.07,0,0,0,184,216v64H168V24a24,24,0,0,0-48,0V40H32a8,8,0,0,0-8,8V232H16a8,8,0,0,0-8,8v88a8,8,0,0,0-8,8v32A8,8,0,0,0,8,376Zm8-16V344H120v16Zm184,32a40,40,0,1,1,40-40A40,40,0,0,1,200,392Zm53.6-24a55.32,55.32,0,0,0-3.12-40h91a55.32,55.32,0,0,0-3.12,40ZM392,392a40,40,0,1,1,40-40A40,40,0,0,1,392,392ZM320,280V264h56v16ZM200,224h56v18.23l-18.53,6.18A8,8,0,0,0,232,256v24H200Zm48,37.77,18.53-6.18A8,8,0,0,0,272,248V222l20-18,11.6,11.6a8,8,0,0,0,11.31-11.31L281,170.34a8,8,0,0,0-11.31,11.32l11,11L263.61,208h-58.4L260,104H376v41.47a23.75,23.75,0,0,0-8-1.47,24,24,0,0,0-24,24v48H328a24,24,0,0,0-24,24v40H248ZM376,248H320v-8a8,8,0,0,1,8-8h24a8,8,0,0,0,8-8V168a8,8,0,0,1,16,0Zm16-144h16V280H392Zm72,264H445.6A55.78,55.78,0,0,0,424,306.11V296h40ZM440,224a24,24,0,0,1,24,24v32H424V224ZM384,72h16a8,8,0,0,1,8,8v8H269l1.36-2.73A23.85,23.85,0,0,1,291.78,72ZM192,296H408v2.4A55.73,55.73,0,0,0,352.88,312H239.12A55.76,55.76,0,0,0,168,306.11V296ZM136,24a8,8,0,0,1,16,0V323.3a55.47,55.47,0,0,0,0,57.4V392H136ZM72,56H88V72H72ZM56,56V80a8,8,0,0,0,8,8H96a8,8,0,0,0,8-8V56h16v80H40V56Zm16,96H88v16H72Zm-32,0H56v24a8,8,0,0,0,8,8H96a8,8,0,0,0,8-8V152h16v80H40Zm24,96H80v16H64Zm-40,0H48v24a8,8,0,0,0,8,8H88a8,8,0,0,0,8-8V248h24v80H24Z"/></g></g></svg>